<svg xmlns="http://www.w3.org/2000/svg" width="1440" height="1024" fill="none"><g clip-path="url(#a)"><mask id="b" width="1440" height="1024" x="0" y="0" maskUnits="userSpaceOnUse" style="mask-type:luminance"><path fill="#fff" d="M1440 0H0v1024h1440V0Z"/></mask><g mask="url(#b)"><mask id="c" width="1440" height="1024" x="0" y="0" maskUnits="userSpaceOnUse" style="mask-type:luminance"><path fill="#fff" d="M1440 0H0v1024h1440V0Z"/></mask><g mask="url(#c)"><path fill="url(#d)" d="M1440 0H0v1024h1440V0Z"/></g><path fill="#fff" d="M149.511 328.458s2.208 5.448 3.494 6.82c1.286 1.372 6.394 3.728 6.394 3.728s-5.108 2.355-6.394 3.727c-1.286 1.372-3.494 6.82-3.494 6.82s-2.208-5.448-3.495-6.82c-1.286-1.372-6.393-3.727-6.393-3.727s5.107-2.356 6.393-3.728c1.287-1.372 3.495-6.82 3.495-6.82Z"/><path fill="#fff" d="M176.986 81.121s2.208 5.448 3.494 6.82c1.286 1.372 6.394 3.727 6.394 3.727s-5.108 2.356-6.394 3.728c-1.286 1.372-3.494 6.82-3.494 6.82s-2.208-5.448-3.495-6.82c-1.286-1.372-6.393-3.728-6.393-3.728s5.107-2.355 6.393-3.727c1.287-1.372 3.495-6.82 3.495-6.82Z" opacity=".5"/><path fill="#fff" d="M475.872 290.55s2.208 5.447 3.494 6.82c1.287 1.372 6.394 3.727 6.394 3.727s-5.107 2.355-6.394 3.727c-1.286 1.373-3.494 6.82-3.494 6.82s-2.208-5.447-3.495-6.82c-1.286-1.372-6.393-3.727-6.393-3.727s5.107-2.355 6.393-3.727c1.287-1.373 3.495-6.82 3.495-6.82Zm23.117-117.985s3.686 9.072 5.817 11.366c2.151 2.294 10.656 6.205 10.656 6.205s-8.505 3.933-10.656 6.206c-2.15 2.294-5.817 11.366-5.817 11.366s-3.687-9.072-5.818-11.366c-2.15-2.294-10.656-6.206-10.656-6.206s8.506-3.932 10.656-6.205c2.151-2.294 5.818-11.366 5.818-11.366Zm12.076 208.65s3.687 9.072 5.818 11.366c2.131 2.294 10.656 6.206 10.656 6.206s-8.506 3.932-10.656 6.205c-2.15 2.294-5.818 11.367-5.818 11.367s-3.686-9.073-5.817-11.367c-2.151-2.294-10.656-6.205-10.656-6.205s8.505-3.932 10.656-6.206c2.15-2.294 5.817-11.366 5.817-11.366ZM89.069 151.45s3.686 9.072 5.817 11.366c2.132 2.294 10.656 6.206 10.656 6.206s-8.505 3.932-10.656 6.205c-2.15 2.294-5.817 11.366-5.817 11.366s-3.687-9.072-5.818-11.366c-2.15-2.294-10.656-6.205-10.656-6.205s8.506-3.933 10.656-6.206c2.15-2.294 5.818-11.366 5.818-11.366ZM1005 859.136s2.21 5.448 3.5 6.82c1.29 1.372 6.39 3.727 6.39 3.727s-5.1 2.355-6.39 3.728c-1.29 1.372-3.5 6.819-3.5 6.819s-2.2-5.447-3.49-6.819c-1.29-1.373-6.393-3.728-6.393-3.728s5.103-2.355 6.393-3.727c1.29-1.372 3.49-6.82 3.49-6.82Zm27.48-247.337s2.21 5.448 3.49 6.82c1.29 1.372 6.4 3.727 6.4 3.727s-5.11 2.355-6.4 3.728c-1.28 1.372-3.49 6.819-3.49 6.819s-2.21-5.447-3.49-6.819c-1.29-1.373-6.4-3.728-6.4-3.728s5.11-2.355 6.4-3.727c1.28-1.372 3.49-6.82 3.49-6.82Zm298.87 209.429s2.2 5.447 3.49 6.819c1.29 1.373 6.39 3.728 6.39 3.728s-5.1 2.355-6.39 3.727c-1.29 1.372-3.49 6.82-3.49 6.82s-2.21-5.448-3.5-6.82c-1.28-1.372-6.39-3.727-6.39-3.727s5.11-2.355 6.39-3.728c1.29-1.372 3.5-6.819 3.5-6.819Zm23.11-118.006s3.69 9.073 5.82 11.366c2.15 2.294 10.66 6.206 10.66 6.206s-8.51 3.932-10.66 6.205c-2.15 2.294-5.82 11.367-5.82 11.367s-3.68-9.073-5.81-11.367c-2.15-2.294-10.66-6.205-10.66-6.205s8.51-3.932 10.66-6.206c2.15-2.293 5.81-11.366 5.81-11.366Z"/><path fill="#fff" d="M1366.56 911.893s3.69 9.072 5.82 11.366c2.13 2.294 10.65 6.205 10.65 6.205s-8.5 3.933-10.65 6.206c-2.15 2.294-5.82 11.366-5.82 11.366s-3.69-9.072-5.82-11.366c-2.15-2.294-10.65-6.206-10.65-6.206s8.5-3.932 10.65-6.205c2.15-2.294 5.82-11.366 5.82-11.366ZM944.563 682.127s3.687 9.073 5.818 11.367c2.131 2.294 10.656 6.205 10.656 6.205s-8.506 3.932-10.656 6.206c-2.15 2.293-5.818 11.366-5.818 11.366s-3.686-9.073-5.817-11.366c-2.151-2.294-10.656-6.206-10.656-6.206s8.505-3.932 10.656-6.205c2.15-2.294 5.817-11.367 5.817-11.367Z" opacity=".5"/><path fill="#fff" d="M618.816 833.167s1.594 3.953 2.534 4.957c.941 1.003 4.647 2.703 4.647 2.703s-3.706 1.7-4.647 2.703c-.94 1.004-2.534 4.956-2.534 4.956s-1.594-3.952-2.534-4.956c-.941-1.003-4.647-2.703-4.647-2.703s3.706-1.7 4.647-2.703c.94-1.004 2.534-4.957 2.534-4.957Zm19.93-179.466s1.593 3.953 2.534 4.956c.941 1.004 4.647 2.704 4.647 2.704s-3.706 1.7-4.647 2.703c-.941 1.004-2.534 4.956-2.534 4.956s-1.594-3.952-2.535-4.956c-.94-1.003-4.646-2.703-4.646-2.703s3.706-1.7 4.646-2.704c.941-1.003 2.535-4.956 2.535-4.956Zm216.863 151.962s1.594 3.952 2.535 4.956c.941 1.003 4.646 2.703 4.646 2.703s-3.705 1.7-4.646 2.704c-.941 1.003-2.535 4.956-2.535 4.956s-1.593-3.953-2.534-4.956c-.941-1.004-4.646-2.704-4.646-2.704s3.705-1.7 4.646-2.703c.941-1.004 2.534-4.956 2.534-4.956Zm16.781-85.627s2.669 6.574 4.224 8.253c1.555 1.68 7.738 4.506 7.738 4.506s-6.163 2.847-7.738 4.506c-1.574 1.658-4.224 8.253-4.224 8.253s-2.668-6.574-4.224-8.253c-1.555-1.659-7.737-4.506-7.737-4.506s6.163-2.847 7.737-4.506c1.556-1.659 4.224-8.253 4.224-8.253Z"/><path fill="#fff" d="M881.165 871.445s2.669 6.574 4.224 8.253c1.555 1.659 7.737 4.506 7.737 4.506s-6.163 2.846-7.737 4.505c-1.555 1.659-4.224 8.254-4.224 8.254s-2.669-6.574-4.224-8.254c-1.555-1.659-7.738-4.505-7.738-4.505s6.163-2.847 7.738-4.506c1.555-1.659 4.224-8.253 4.224-8.253Z" opacity=".5"/><path fill="#fff" d="M574.963 704.737s2.669 6.574 4.224 8.254c1.555 1.659 7.738 4.505 7.738 4.505s-6.164 2.847-7.738 4.506c-1.555 1.659-4.224 8.253-4.224 8.253s-2.669-6.574-4.224-8.253c-1.555-1.659-7.738-4.506-7.738-4.506s6.164-2.846 7.738-4.505c1.555-1.659 4.224-8.254 4.224-8.254Zm292.551-431.882s1.478-3.993 1.478-5.407c0-1.413-1.478-5.406-1.478-5.406s3.744 1.577 5.069 1.577c1.324 0 5.068-1.577 5.068-1.577s-1.478 3.993-1.478 5.406c0 1.414 1.478 5.407 1.478 5.407s-3.744-1.577-5.068-1.577c-1.325 0-5.069 1.577-5.069 1.577ZM734.438 384.717s1.479-3.994 1.479-5.407c0-1.413-1.479-5.407-1.479-5.407s3.745 1.577 5.069 1.577c1.325 0 5.069-1.577 5.069-1.577s-1.478 3.994-1.478 5.407c0 1.413 1.478 5.407 1.478 5.407s-3.744-1.577-5.069-1.577c-1.324 0-5.069 1.577-5.069 1.577ZM681.83 113.685s1.479-3.994 1.479-5.407c0-1.413-1.479-5.407-1.479-5.407s3.744 1.577 5.069 1.577c1.325 0 5.069-1.577 5.069-1.577s-1.479 3.994-1.479 5.407c0 1.413 1.479 5.407 1.479 5.407s-3.744-1.577-5.069-1.577c-1.325 0-5.069 1.577-5.069 1.577Z"/><path fill="#fff" d="M613.209 161.587s2.477-6.676 2.477-9.011c0-2.355-2.477-9.011-2.477-9.011s6.26 2.642 8.448 2.642c2.189 0 8.448-2.642 8.448-2.642s-2.476 6.676-2.476 9.011c0 2.355 2.476 9.011 2.476 9.011s-6.259-2.642-8.448-2.642c-2.208 0-8.448 2.642-8.448 2.642Z" opacity=".5"/><path fill="#fff" d="M707.386 47.903s2.477-6.677 2.477-9.011c0-2.335-2.477-9.012-2.477-9.012s6.259 2.642 8.448 2.642c2.208 0 8.448-2.642 8.448-2.642s-2.477 6.677-2.477 9.012c0 2.334 2.477 9.01 2.477 9.01s-6.259-2.641-8.448-2.641-8.448 2.642-8.448 2.642Z"/><path fill="#fff" d="M813.389 396.739s2.476-6.677 2.476-9.011c0-2.335-2.476-9.012-2.476-9.012s6.259 2.642 8.448 2.642c2.188 0 8.448-2.642 8.448-2.642s-2.477 6.677-2.477 9.012c0 2.334 2.477 9.011 2.477 9.011s-6.26-2.642-8.448-2.642c-2.189 0-8.448 2.642-8.448 2.642Zm573.081-50.893s2.05-5.509 2.05-7.455c0-1.945-2.05-7.455-2.05-7.455s5.17 2.192 6.99 2.192c1.82 0 6.99-2.192 6.99-2.192s-2.06 5.51-2.06 7.455c0 1.946 2.06 7.455 2.06 7.455s-5.17-2.192-6.99-2.192c-1.82 0-6.99 2.192-6.99 2.192Z" opacity=".5"/><path fill="#fff" d="M1203.09 500.019s2.06-5.509 2.06-7.454c0-1.946-2.06-7.455-2.06-7.455s5.17 2.191 6.99 2.191c1.82 0 6.99-2.191 6.99-2.191s-2.06 5.509-2.06 7.455c0 1.945 2.06 7.454 2.06 7.454s-5.17-2.191-6.99-2.191c-1.82 0-6.99 2.191-6.99 2.191Zm-72.5-373.514s2.06-5.509 2.06-7.455c0-1.945-2.06-7.454-2.06-7.454s5.17 2.191 6.99 2.191c1.82 0 6.99-2.191 6.99-2.191s-2.05 5.509-2.05 7.454c0 1.946 2.05 7.455 2.05 7.455s-5.17-2.191-6.99-2.191c-1.82 0-6.99 2.191-6.99 2.191Z"/><path fill="#fff" d="M1036.01 192.512s3.42-9.195 3.42-12.431c0-3.236-3.42-12.432-3.42-12.432s8.62 3.646 11.66 3.646c3.03 0 11.65-3.646 11.65-3.646s-3.42 9.196-3.42 12.432c0 3.236 3.42 12.431 3.42 12.431s-8.62-3.645-11.65-3.645c-3.04 0-11.66 3.645-11.66 3.645Z" opacity=".5"/><path fill="#fff" d="M1165.79 35.84s3.41-9.195 3.41-12.431c0-3.236-3.41-12.432-3.41-12.432s8.62 3.646 11.65 3.646c3.03 0 11.65-3.646 11.65-3.646s-3.41 9.196-3.41 12.432c0 3.236 3.41 12.431 3.41 12.431s-8.62-3.645-11.65-3.645c-3.03 0-11.65 3.645-11.65 3.645Zm146.09 480.768s3.42-9.195 3.42-12.431c0-3.236-3.42-12.432-3.42-12.432s8.62 3.646 11.65 3.646c3.04 0 11.66-3.646 11.66-3.646s-3.42 9.196-3.42 12.432c0 3.236 3.42 12.431 3.42 12.431s-8.62-3.645-11.66-3.645c-3.03 0-11.65 3.645-11.65 3.645Z"/><path fill="#fff" d="M472.992 833.434s2.055-5.509 2.055-7.455c0-1.946-2.055-7.455-2.055-7.455s5.165 2.192 6.989 2.192c1.824 0 6.989-2.192 6.989-2.192s-2.055 5.509-2.055 7.455c0 1.946 2.055 7.455 2.055 7.455s-5.165-2.192-6.989-2.192c-1.824 0-6.989 2.192-6.989 2.192Z" opacity=".5"/><path fill="#fff" d="M289.594 987.607s2.054-5.509 2.054-7.455c0-1.945-2.054-7.454-2.054-7.454s5.165 2.191 6.989 2.191c1.824 0 6.988-2.191 6.988-2.191s-2.054 5.509-2.054 7.454c0 1.946 2.054 7.455 2.054 7.455s-5.164-2.191-6.988-2.191c-1.824 0-6.989 2.191-6.989 2.191Zm-72.5-373.514s2.055-5.509 2.055-7.455c0-1.945-2.055-7.455-2.055-7.455s5.165 2.192 6.989 2.192c1.824 0 6.989-2.192 6.989-2.192s-2.055 5.51-2.055 7.455c0 1.946 2.055 7.455 2.055 7.455s-5.165-2.191-6.989-2.191c-1.824 0-6.989 2.191-6.989 2.191Z"/><path fill="#fff" d="M122.534 680.1s3.418-9.195 3.418-12.431c0-3.236-3.418-12.432-3.418-12.432s8.621 3.646 11.655 3.646c3.033 0 11.654-3.646 11.654-3.646s-3.418 9.196-3.418 12.432c0 3.236 3.418 12.431 3.418 12.431s-8.621-3.645-11.654-3.645c-3.034 0-11.655 3.645-11.655 3.645Z" opacity=".5"/><path fill="#fff" d="M252.307 523.428s3.418-9.196 3.418-12.431c0-3.236-3.418-12.432-3.418-12.432s8.621 3.646 11.655 3.646c3.033 0 11.654-3.646 11.654-3.646s-3.418 9.196-3.418 12.432c0 3.235 3.418 12.431 3.418 12.431s-8.621-3.646-11.654-3.646c-3.034 0-11.655 3.646-11.655 3.646ZM398.4 1004.2s3.417-9.2 3.417-12.435c0-3.236-3.417-12.432-3.417-12.432s8.621 3.646 11.654 3.646c3.034 0 11.655-3.646 11.655-3.646s-3.418 9.196-3.418 12.432c0 3.235 3.418 12.435 3.418 12.435s-8.621-3.65-11.655-3.65c-3.033 0-11.654 3.65-11.654 3.65Z"/><path fill="url(#e)" d="M460.723 368.21c3.053 0 5.51-2.642 5.51-5.878s-2.477-5.877-5.51-5.877c-3.034 0-5.511 2.641-5.511 5.877 0 3.236 2.477 5.878 5.511 5.878Z" opacity=".5" style="mix-blend-mode:screen"/><path fill="url(#f)" d="M371.04 45.875s1.228-3.03 1.939-3.788c.71-.758 3.552-2.069 3.552-2.069s-2.842-1.31-3.552-2.068c-.711-.758-1.939-3.79-1.939-3.79s-1.229 3.032-1.94 3.79c-.71.757-3.552 2.068-3.552 2.068s2.842 1.31 3.552 2.069c.711.757 1.94 3.788 1.94 3.788Z" opacity=".5" style="mix-blend-mode:screen"/><path fill="url(#g)" d="M522.701 158.413s1.228-3.031 1.939-3.789c.71-.758 3.552-2.068 3.552-2.068s-2.842-1.311-3.552-2.069c-.711-.758-1.939-3.789-1.939-3.789s-1.229 3.031-1.94 3.789c-.71.758-3.552 2.069-3.552 2.069s2.842 1.31 3.552 2.068c.711.758 1.94 3.789 1.94 3.789Z" opacity=".5" style="mix-blend-mode:screen"/><path fill="url(#h)" d="M447.129 238.408s1.229-3.031 1.94-3.789c.71-.758 3.552-2.068 3.552-2.068s-2.842-1.311-3.552-2.069c-.711-.758-1.94-3.789-1.94-3.789s-1.228 3.031-1.939 3.789c-.71.758-3.552 2.069-3.552 2.069s2.842 1.31 3.552 2.068c.711.758 1.939 3.789 1.939 3.789Z" opacity=".5" style="mix-blend-mode:screen"/><path fill="url(#i)" d="M104.505 417.485s1.229-3.031 1.94-3.789c.71-.758 3.552-2.068 3.552-2.068s-2.842-1.311-3.552-2.069c-.711-.758-1.94-3.789-1.94-3.789s-1.228 3.031-1.939 3.789c-.71.758-3.552 2.069-3.552 2.069s2.842 1.31 3.552 2.068c.711.758 1.939 3.789 1.939 3.789Z" opacity=".5" style="mix-blend-mode:screen"/><path fill="url(#j)" d="M168.192 152.617s1.229-3.031 1.939-3.789c.71-.757 3.552-2.068 3.552-2.068s-2.842-1.311-3.552-2.069c-.71-.757-1.939-3.788-1.939-3.788s-1.229 3.031-1.939 3.788c-.711.758-3.552 2.069-3.552 2.069s2.841 1.311 3.552 2.068c.71.758 1.939 3.789 1.939 3.789Z" opacity=".5" style="mix-blend-mode:screen"/><path fill="url(#k)" d="M135.533 239.616c0 1.086-.826 1.966-1.843 1.966-1.018 0-1.844-.88-1.844-1.966 0-1.085.826-1.966 1.844-1.966 1.017 0 1.843.881 1.843 1.966Zm14.688-35.881c-2.035 0-3.667 1.762-3.667 3.912s1.651 3.912 3.667 3.912 3.667-1.762 3.667-3.912-1.651-3.912-3.667-3.912Zm7.334 46.981c-4.051 0-7.334 3.502-7.334 7.824 0 4.321 3.283 7.823 7.334 7.823s7.335-3.502 7.335-7.823c0-4.322-3.284-7.824-7.335-7.824Zm-63.61 9.134c-2.035 0-3.667 1.762-3.667 3.912s1.651 3.912 3.667 3.912c2.017 0 3.668-1.762 3.668-3.912s-1.651-3.912-3.668-3.912Z" style="mix-blend-mode:screen"/><path fill="url(#l)" d="M456.922 99.39c-.077-1.086.672-2.028 1.67-2.11.998-.082 1.901.717 1.978 1.782.076 1.085-.672 2.027-1.671 2.109-1.017.082-1.901-.717-1.977-1.782Zm-11.77 37.089c2.016-.185 3.514-2.069 3.341-4.24-.173-2.15-1.939-3.747-3.975-3.563-2.016.184-3.513 2.068-3.34 4.239.172 2.151 1.939 3.748 3.974 3.564Zm-11.04-46.142c4.032-.368 7.027-4.157 6.682-8.458-.346-4.3-3.898-7.496-7.93-7.127-4.032.369-7.027 4.157-6.682 8.458.346 4.301 3.898 7.496 7.93 7.127Zm62.65-14.848c2.016-.184 3.513-2.068 3.34-4.239-.172-2.15-1.939-3.748-3.974-3.564-2.016.185-3.514 2.069-3.341 4.24.173 2.15 1.939 3.748 3.975 3.563Z" style="mix-blend-mode:screen"/><path fill="url(#m)" d="M1316.22 898.888c3.05 0 5.51-2.642 5.51-5.878s-2.48-5.878-5.51-5.878c-3.04 0-5.51 2.642-5.51 5.878s2.47 5.878 5.51 5.878Z" opacity=".5" style="mix-blend-mode:screen"/><path fill="url(#n)" d="M1226.53 576.553s1.23-3.031 1.94-3.789c.71-.757 3.56-2.068 3.56-2.068s-2.85-1.311-3.56-2.069c-.71-.757-1.94-3.788-1.94-3.788s-1.22 3.031-1.94 3.788c-.71.758-3.55 2.069-3.55 2.069s2.84 1.311 3.55 2.068c.72.758 1.94 3.789 1.94 3.789Z" opacity=".5" style="mix-blend-mode:screen"/><path fill="url(#o)" d="M1378.2 689.091s1.22-3.031 1.93-3.789 3.56-2.069 3.56-2.069-2.85-1.31-3.56-2.068-1.93-3.789-1.93-3.789-1.23 3.031-1.94 3.789-3.56 2.068-3.56 2.068 2.85 1.311 3.56 2.069 1.94 3.789 1.94 3.789Z" opacity=".5" style="mix-blend-mode:screen"/><path fill="url(#p)" d="M1302.62 769.086s1.23-3.031 1.94-3.789 3.56-2.069 3.56-2.069-2.85-1.31-3.56-2.068-1.94-3.789-1.94-3.789-1.22 3.031-1.94 3.789c-.71.758-3.55 2.068-3.55 2.068s2.84 1.311 3.55 2.069c.72.758 1.94 3.789 1.94 3.789Z" opacity=".5" style="mix-blend-mode:screen"/><path fill="url(#q)" d="M960 948.142s1.229-3.031 1.939-3.789c.711-.757 3.552-2.068 3.552-2.068s-2.841-1.311-3.552-2.069c-.71-.757-1.939-3.788-1.939-3.788s-1.229 3.031-1.939 3.788c-.711.758-3.552 2.069-3.552 2.069s2.841 1.311 3.552 2.068c.71.758 1.939 3.789 1.939 3.789Z" opacity=".5" style="mix-blend-mode:screen"/><path fill="url(#r)" d="M1023.69 683.295s1.22-3.031 1.94-3.789c.71-.758 3.55-2.068 3.55-2.068s-2.84-1.311-3.55-2.069c-.72-.758-1.94-3.789-1.94-3.789s-1.23 3.031-1.94 3.789-3.56 2.069-3.56 2.069 2.85 1.31 3.56 2.068 1.94 3.789 1.94 3.789Z" opacity=".5" style="mix-blend-mode:screen"/><path fill="url(#s)" d="M991.008 770.274c0 1.085-.826 1.966-1.843 1.966-1.018 0-1.844-.881-1.844-1.966 0-1.086.826-1.967 1.844-1.967 1.017 0 1.843.881 1.843 1.967Zm14.692-35.881c-2.04 0-3.67 1.761-3.67 3.911 0 2.151 1.65 3.912 3.67 3.912 2.01 0 3.66-1.761 3.66-3.912 0-2.15-1.65-3.911-3.66-3.911Zm7.33 46.981c-4.05 0-7.33 3.502-7.33 7.823 0 4.321 3.28 7.823 7.33 7.823 4.05 0 7.33-3.502 7.33-7.823 0-4.321-3.28-7.823-7.33-7.823Zm-63.609 9.134c-2.036 0-3.668 1.761-3.668 3.911 0 2.151 1.652 3.912 3.668 3.912s3.667-1.761 3.667-3.912c0-2.15-1.651-3.911-3.667-3.911Z" style="mix-blend-mode:screen"/><path fill="url(#t)" d="M1312.42 630.067c-.08-1.085.67-2.027 1.67-2.109.99-.082 1.9.717 1.97 1.782.08 1.085-.67 2.027-1.67 2.109-1.01.082-1.9-.717-1.97-1.782Zm-11.77 37.09c2.01-.185 3.51-2.069 3.34-4.24-.18-2.15-1.94-3.748-3.98-3.563-2.01.184-3.51 2.068-3.34 4.239.17 2.15 1.94 3.748 3.98 3.564Zm-11.04-46.142c4.03-.368 7.02-4.157 6.68-8.458-.35-4.301-3.9-7.496-7.93-7.127-4.03.369-7.03 4.157-6.68 8.458.34 4.301 3.89 7.496 7.93 7.127Zm62.65-14.848c2.01-.184 3.51-2.068 3.34-4.239-.18-2.151-1.94-3.748-3.98-3.564-2.01.185-3.51 2.069-3.34 4.24.17 2.15 1.94 3.748 3.98 3.563Z" style="mix-blend-mode:screen"/><path fill="url(#u)" d="M844.646 862.003c2.208 0 3.994-1.904 3.994-4.259 0-2.356-1.786-4.26-3.994-4.26s-3.994 1.904-3.994 4.26c0 2.355 1.786 4.259 3.994 4.259Z" opacity=".5" style="mix-blend-mode:screen"/><path fill="url(#v)" d="M779.558 628.122s.884-2.192 1.402-2.745c.518-.553 2.573-1.495 2.573-1.495s-2.055-.942-2.573-1.495c-.518-.553-1.402-2.744-1.402-2.744s-.883 2.191-1.401 2.744c-.519.553-2.573 1.495-2.573 1.495s2.054.942 2.573 1.495c.518.553 1.401 2.745 1.401 2.745Z" opacity=".5" style="mix-blend-mode:screen"/><path fill="url(#w)" d="M889.613 709.776s.883-2.192 1.401-2.745c.519-.553 2.573-1.495 2.573-1.495s-2.054-.942-2.573-1.495c-.518-.553-1.401-2.744-1.401-2.744s-.884 2.191-1.402 2.744c-.518.553-2.573 1.495-2.573 1.495s2.055.942 2.573 1.495c.518.553 1.402 2.745 1.402 2.745Z" opacity=".5" style="mix-blend-mode:screen"/><path fill="url(#x)" d="M834.777 767.816s.883-2.192 1.402-2.745c.518-.552 2.573-1.495 2.573-1.495s-2.055-.942-2.573-1.495c-.519-.553-1.402-2.744-1.402-2.744s-.883 2.191-1.401 2.744c-.519.553-2.573 1.495-2.573 1.495s2.054.943 2.573 1.495c.518.553 1.401 2.745 1.401 2.745Z" opacity=".5" style="mix-blend-mode:screen"/><path fill="url(#y)" d="M586.176 897.761s.883-2.191 1.401-2.744c.519-.553 2.573-1.495 2.573-1.495s-2.054-.942-2.573-1.495c-.518-.553-1.401-2.744-1.401-2.744s-.884 2.191-1.402 2.744c-.518.553-2.573 1.495-2.573 1.495s2.055.942 2.573 1.495c.518.553 1.402 2.744 1.402 2.744Z" opacity=".5" style="mix-blend-mode:screen"/><path fill="url(#z)" d="M632.371 705.577s.883-2.191 1.401-2.744c.519-.553 2.573-1.495 2.573-1.495s-2.054-.942-2.573-1.495c-.518-.553-1.401-2.745-1.401-2.745s-.883 2.192-1.402 2.745c-.518.553-2.573 1.495-2.573 1.495s2.055.942 2.573 1.495c.519.553 1.402 2.744 1.402 2.744Z" opacity=".5" style="mix-blend-mode:screen"/><path fill="url(#A)" d="M608.678 768.696c0 .779-.595 1.414-1.324 1.414-.73 0-1.325-.635-1.325-1.414 0-.778.595-1.413 1.325-1.413.729 0 1.324.635 1.324 1.413Zm10.656-26.03c-1.478 0-2.668 1.27-2.668 2.847s1.19 2.847 2.668 2.847c1.479 0 2.669-1.27 2.669-2.847s-1.19-2.847-2.669-2.847Zm5.319 34.079c-2.938 0-5.319 2.54-5.319 5.673 0 3.134 2.381 5.673 5.319 5.673 2.937 0 5.318-2.539 5.318-5.673 0-3.133-2.381-5.673-5.318-5.673Zm-46.157 6.636c-1.478 0-2.669 1.269-2.669 2.846 0 1.577 1.191 2.847 2.669 2.847s2.669-1.27 2.669-2.847-1.191-2.846-2.669-2.846Z" style="mix-blend-mode:screen"/><path fill="url(#B)" d="M841.881 666.952c-.057-.778.48-1.475 1.21-1.536.73-.062 1.382.512 1.44 1.29.058.778-.48 1.475-1.21 1.536-.729.062-1.382-.512-1.44-1.29Zm-8.544 26.911c1.46-.144 2.554-1.516 2.42-3.072-.116-1.557-1.421-2.724-2.88-2.581-1.46.123-2.554 1.516-2.42 3.072.116 1.557 1.421 2.724 2.88 2.581Zm-8.025-33.485c2.937-.266 5.107-3.011 4.857-6.144-.249-3.134-2.822-5.448-5.76-5.182-2.937.267-5.107 3.011-4.857 6.144.249 3.134 2.822 5.448 5.76 5.182Zm45.465-10.773c1.46-.143 2.554-1.515 2.42-3.072-.135-1.556-1.421-2.724-2.88-2.58-1.46.143-2.554 1.515-2.42 3.072.135 1.556 1.421 2.724 2.88 2.58Z" style="mix-blend-mode:screen"/><path fill="url(#C)" d="M726.95 82.125c-1.555-1.659-4.09-1.659-5.664 0-1.555 1.659-1.555 4.362 0 6.041 1.555 1.66 4.09 1.66 5.664 0 1.574-1.658 1.555-4.362 0-6.041Z" opacity=".5" style="mix-blend-mode:screen"/><path fill="url(#D)" d="M617.932 296.592s-2.073.88-2.822.88c-.749 0-2.822-.88-2.822-.88s.825 2.211.825 3.01c0 .778-.825 3.011-.825 3.011s2.073-.881 2.822-.881c.749 0 2.822.881 2.822.881s-.825-2.233-.825-3.011.825-3.01.825-3.01Z" opacity=".5" style="mix-blend-mode:screen"/><path fill="url(#E)" d="M594.24 155.853s-2.074.881-2.823.881c-.729 0-2.822-.881-2.822-.881s.825 2.212.825 3.01c0 .779-.825 3.011-.825 3.011s2.073-.881 2.822-.881c.749 0 2.823.881 2.823.881s-.826-2.212-.826-3.011c0-.798.826-3.01.826-3.01Z" opacity=".5" style="mix-blend-mode:screen"/><path fill="url(#F)" d="M671.481 156.181s-2.073.88-2.822.88c-.73 0-2.823-.88-2.823-.88s.826 2.212.826 3.01c0 .799-.826 3.011-.826 3.011s2.074-.881 2.823-.881c.729 0 2.822.881 2.822.881s-.825-2.233-.825-3.011.825-3.01.825-3.01Z" opacity=".5" style="mix-blend-mode:screen"/><path fill="url(#G)" d="M933.408 251.802s-2.074.88-2.823.88c-.73 0-2.822-.88-2.822-.88s.825 2.212.825 3.01c0 .799-.825 3.011-.825 3.011s2.073-.881 2.822-.881c.73 0 2.823.881 2.823.881s-.826-2.232-.826-3.011c0-.778.826-3.01.826-3.01Z" opacity=".5" style="mix-blend-mode:screen"/><path fill="url(#H)" d="M773.337 352.85s-2.073.881-2.822.881c-.749 0-2.823-.881-2.823-.881s.826 2.232.826 3.011c0 .778-.826 3.01-.826 3.01s2.074-.88 2.823-.88c.729 0 2.822.88 2.822.88s-.825-2.212-.825-3.01c0-.779.825-3.011.825-3.011Z" opacity=".5" style="mix-blend-mode:screen"/><path fill="url(#I)" d="M831.955 326.083a1.275 1.275 0 0 1 1.882 0 1.49 1.49 0 0 1 0 2.007 1.275 1.275 0 0 1-1.882 0 1.49 1.49 0 0 1 0-2.007Zm-24.787 10.383a2.549 2.549 0 0 0 3.763 0c1.037-1.106 1.037-2.908 0-4.014a2.549 2.549 0 0 0-3.763 0c-1.037 1.106-1.037 2.908 0 4.014Zm18.835-28.119c2.074 2.212 5.453 2.212 7.526 0 2.074-2.212 2.074-5.816 0-8.028-2.073-2.212-5.452-2.212-7.526 0s-2.074 5.816 0 8.028Zm37.037 30.126a2.549 2.549 0 0 0 3.763 0c1.037-1.106 1.037-2.908 0-4.014a2.549 2.549 0 0 0-3.763 0c-1.037 1.106-1.037 2.908 0 4.014Z" style="mix-blend-mode:screen"/><path fill="url(#J)" d="M599.597 222.147c-.48.594-1.306.676-1.882.164a1.493 1.493 0 0 1-.154-2.008c.48-.593 1.306-.675 1.882-.163.557.512.634 1.392.154 2.007Zm23.884-12.575c-1.132-1.004-2.803-.86-3.744.348-.94 1.208-.806 2.99.327 3.994 1.133 1.003 2.803.86 3.744-.348.941-1.209.806-2.991-.327-3.994Zm-16.531 29.716c-2.246-2.027-5.606-1.72-7.507.676-1.901 2.396-1.613 5.98.634 8.008 2.246 2.027 5.606 1.72 7.507-.676 1.901-2.396 1.613-5.98-.634-8.008Zm-39.302-26.665c-1.133-1.003-2.803-.86-3.744.349-.941 1.208-.807 2.99.326 3.993 1.133 1.004 2.803.86 3.744-.348.941-1.208.807-2.99-.326-3.994Z" style="mix-blend-mode:screen"/><path fill="url(#K)" d="M1192.76 83.006c-2.15-2.294-5.64-2.294-7.79 0-2.15 2.293-2.15 6.02 0 8.314 2.15 2.294 5.64 2.294 7.79 0 2.15-2.293 2.15-6.02 0-8.314Z" opacity=".5" style="mix-blend-mode:screen"/><path fill="url(#L)" d="M1042.5 378.573s-2.88 1.208-3.88 1.208c-1.01 0-3.87-1.208-3.87-1.208s1.13 3.072 1.13 4.137c0 1.065-1.13 4.137-1.13 4.137s2.88-1.208 3.87-1.208c1.02 0 3.88 1.208 3.88 1.208s-1.13-3.072-1.13-4.137c0-1.086 1.13-4.137 1.13-4.137Z" opacity=".5" style="mix-blend-mode:screen"/><path fill="url(#M)" d="M1009.86 184.607s-2.88 1.208-3.88 1.208c-.99 0-3.87-1.208-3.87-1.208s1.13 3.072 1.13 4.137c0 1.085-1.13 4.137-1.13 4.137s2.88-1.209 3.87-1.209c1.02 0 3.88 1.209 3.88 1.209s-1.13-3.072-1.13-4.137c0-1.086 1.13-4.137 1.13-4.137Z" opacity=".5" style="mix-blend-mode:screen"/><path fill="url(#N)" d="M1116.33 185.057s-2.88 1.209-3.88 1.209c-1.02 0-3.88-1.209-3.88-1.209s1.13 3.072 1.13 4.137c0 1.086-1.13 4.137-1.13 4.137s2.88-1.208 3.88-1.208c1.02 0 3.88 1.208 3.88 1.208s-1.14-3.072-1.14-4.137c0-1.085 1.14-4.137 1.14-4.137Z" opacity=".5" style="mix-blend-mode:screen"/><path fill="url(#O)" d="M1256.7 456.11s-2.88 1.209-3.88 1.209c-1.02 0-3.88-1.209-3.88-1.209s1.13 3.072 1.13 4.137c0 1.065-1.13 4.137-1.13 4.137s2.88-1.208 3.88-1.208c1.02 0 3.88 1.208 3.88 1.208s-1.14-3.072-1.14-4.137c0-1.085 1.14-4.137 1.14-4.137Z" opacity=".5" style="mix-blend-mode:screen"/><path fill="url(#P)" d="M1337.47 419.226a1.76 1.76 0 0 1 2.59 0c.71.757.71 2.007 0 2.765a1.76 1.76 0 0 1-2.59 0c-.71-.758-.71-2.008 0-2.765Zm-34.17 14.295c1.44 1.536 3.76 1.536 5.18 0 1.44-1.536 1.44-4.014 0-5.53-1.44-1.536-3.76-1.536-5.18 0-1.43 1.536-1.44 4.014 0 5.53Zm25.95-38.748c2.86 3.051 7.51 3.051 10.39 0 2.86-3.052 2.86-8.008 0-11.08-2.86-3.072-7.51-3.052-10.39 0-2.86 3.051-2.86 8.008 0 11.08Zm51.04 41.513c1.44 1.536 3.76 1.536 5.18 0s1.44-4.015 0-5.53c-1.44-1.516-3.76-1.536-5.18 0s-1.44 4.014 0 5.53Z" style="mix-blend-mode:screen"/><path fill="url(#Q)" d="M1017.25 275.968c-.65.819-1.8.922-2.59.225-.77-.696-.86-1.925-.21-2.764.65-.82 1.81-.922 2.59-.226.77.697.87 1.925.21 2.765Zm32.91-17.346c-1.55-1.393-3.86-1.188-5.16.471-1.31 1.658-1.12 4.116.44 5.509 1.56 1.392 3.86 1.188 5.16-.471 1.31-1.659 1.12-4.117-.44-5.509Zm-22.77 40.96c-3.09-2.786-7.74-2.376-10.35.942-2.61 3.297-2.22 8.253.89 11.038 3.11 2.786 7.73 2.376 10.35-.942 2.61-3.297 2.22-8.253-.89-11.038Zm-54.161-36.762c-1.556-1.393-3.86-1.188-5.165.471-1.306 1.659-1.114 4.116.441 5.509 1.556 1.393 3.86 1.188 5.165-.471 1.306-1.659 1.114-4.116-.441-5.509Z" style="mix-blend-mode:screen"/><path fill="url(#R)" d="M279.283 570.593c-2.15-2.293-5.645-2.293-7.795 0-2.151 2.294-2.151 6.022 0 8.315 2.15 2.294 5.645 2.294 7.795 0 2.15-2.293 2.15-6.021 0-8.315Z" opacity=".5" style="mix-blend-mode:screen"/><path fill="url(#S)" d="M129.024 866.161s-2.88 1.208-3.879 1.208c-1.017 0-3.878-1.208-3.878-1.208s1.133 3.072 1.133 4.137c0 1.085-1.133 4.137-1.133 4.137s2.88-1.209 3.878-1.209c1.018 0 3.879 1.209 3.879 1.209s-1.133-3.072-1.133-4.137c0-1.086 1.133-4.137 1.133-4.137Z" opacity=".5" style="mix-blend-mode:screen"/><path fill="url(#T)" d="M96.384 672.195s-2.88 1.208-3.879 1.208c-1.017 0-3.878-1.208-3.878-1.208s1.133 3.072 1.133 4.137c0 1.065-1.133 4.137-1.133 4.137s2.88-1.209 3.878-1.209c1.018 0 3.879 1.209 3.879 1.209s-1.133-3.072-1.133-4.137c0-1.065 1.133-4.137 1.133-4.137Z" opacity=".5" style="mix-blend-mode:screen"/><path fill="url(#U)" d="M202.848 672.645s-2.88 1.209-3.879 1.209c-1.017 0-3.878-1.209-3.878-1.209s1.133 3.072 1.133 4.137c0 1.086-1.133 4.137-1.133 4.137s2.88-1.208 3.878-1.208c1.018 0 3.879 1.208 3.879 1.208s-1.133-3.072-1.133-4.137c0-1.085 1.133-4.137 1.133-4.137Z" opacity=".5" style="mix-blend-mode:screen"/><path fill="url(#V)" d="M563.827 804.434s-2.88 1.208-3.878 1.208c-1.018 0-3.879-1.208-3.879-1.208s1.133 3.072 1.133 4.137c0 1.065-1.133 4.137-1.133 4.137s2.88-1.208 3.879-1.208c1.017 0 3.878 1.208 3.878 1.208s-1.133-3.072-1.133-4.137c0-1.065 1.133-4.137 1.133-4.137Z" opacity=".5" style="mix-blend-mode:screen"/><path fill="url(#W)" d="M343.219 943.698s-2.88 1.208-3.879 1.208c-1.017 0-3.878-1.208-3.878-1.208s1.133 3.072 1.133 4.137c0 1.065-1.133 4.137-1.133 4.137s2.88-1.208 3.878-1.208c1.018 0 3.879 1.208 3.879 1.208s-1.133-3.072-1.133-4.137c0-1.086 1.133-4.137 1.133-4.137Z" opacity=".5" style="mix-blend-mode:screen"/><path fill="url(#X)" d="M423.993 906.814a1.761 1.761 0 0 1 2.592 0c.711.757.711 2.007 0 2.764a1.761 1.761 0 0 1-2.592 0c-.71-.757-.71-2.007 0-2.764Zm-34.176 14.295c1.44 1.536 3.763 1.536 5.184 0 1.44-1.536 1.44-4.014 0-5.53-1.44-1.515-3.763-1.536-5.184 0-1.44 1.536-1.44 4.014 0 5.53Zm25.959-38.748c2.861 3.051 7.507 3.051 10.387 0 2.88-3.052 2.861-8.008 0-11.08-2.861-3.072-7.507-3.052-10.387 0-2.861 3.051-2.861 8.008 0 11.08Zm51.033 41.512c1.44 1.536 3.764 1.536 5.184 0 1.421-1.536 1.44-4.014 0-5.529-1.44-1.516-3.763-1.536-5.184 0-1.42 1.536-1.44 4.014 0 5.529Z" style="mix-blend-mode:screen"/><path fill="url(#Y)" d="M103.776 763.556a1.768 1.768 0 0 1-2.592.225c-.787-.696-.864-1.925-.211-2.765a1.769 1.769 0 0 1 2.592-.225c.768.697.864 1.925.211 2.765Zm32.909-17.347c-1.556-1.392-3.86-1.187-5.165.471-1.306 1.659-1.114 4.117.441 5.51 1.556 1.392 3.86 1.187 5.165-.471 1.306-1.659 1.114-4.117-.441-5.51Zm-22.772 40.96c-3.091-2.785-7.737-2.375-10.348.943-2.612 3.317-2.228 8.253.883 11.038 3.091 2.786 7.737 2.376 10.349-.942 2.611-3.297 2.227-8.253-.884-11.039ZM59.75 750.408c-1.555-1.393-3.86-1.188-5.165.471-1.305 1.659-1.113 4.116.442 5.509 1.555 1.393 3.86 1.188 5.165-.471 1.305-1.659 1.113-4.117-.442-5.509Z" style="mix-blend-mode:screen"/><path fill="url(#Z)" d="M1034.71 690.135c-2.96-.758-5.94 1.188-6.65 4.362-.71 3.175 1.12 6.329 4.09 7.086 2.96.758 5.94-1.187 6.65-4.362.71-3.154-1.12-6.328-4.09-7.086Z" opacity=".5" style="mix-blend-mode:screen"/><path fill="url(#aa)" d="M928.685 878.797s-1.843 2.642-2.707 3.195c-.864.573-3.898 1.126-3.898 1.126s2.477 1.966 2.995 2.888c.519.921 1.056 4.157 1.056 4.157s1.843-2.642 2.707-3.195c.864-.573 3.898-1.126 3.898-1.126s-2.477-1.966-2.995-2.888c-.538-.921-1.056-4.157-1.056-4.157Z" opacity=".5" style="mix-blend-mode:screen"/><path fill="url(#ab)" d="M1019.62 819.753s-1.85 2.642-2.71 3.195c-.87.573-3.9 1.126-3.9 1.126s2.48 1.966 3 2.888c.53.922 1.05 4.157 1.05 4.157s1.85-2.641 2.71-3.194c.86-.574 3.9-1.127 3.9-1.127s-2.48-1.966-3-2.888c-.54-.921-1.05-4.157-1.05-4.157Z" opacity=".5" style="mix-blend-mode:screen"/><path fill="url(#ac)" d="M1391.88 730.583s-1.84 2.642-2.7 3.195c-.87.573-3.9 1.126-3.9 1.126s2.48 1.966 2.99 2.888c.54.922 1.06 4.158 1.06 4.158s1.84-2.642 2.71-3.195c.86-.574 3.9-1.127 3.9-1.127s-2.48-1.966-3-2.887c-.52-.922-1.06-4.158-1.06-4.158Z" opacity=".5" style="mix-blend-mode:screen"/><path fill="url(#ad)" d="M1272.21 972.391s-1.84 2.641-2.71 3.194c-.86.574-3.89 1.127-3.89 1.127s2.47 1.966 2.99 2.888c.54.921 1.06 4.157 1.06 4.157s1.84-2.642 2.7-3.195c.87-.573 3.9-1.126 3.9-1.126s-2.47-1.966-2.99-2.888c-.54-.922-1.06-4.157-1.06-4.157Z" opacity=".5" style="mix-blend-mode:screen"/><path fill="url(#ae)" d="M1322.94 895.877c.23-1.044 1.23-1.7 2.21-1.454.97.246 1.59 1.311 1.36 2.355-.23 1.045-1.23 1.7-2.21 1.454-.98-.245-1.59-1.31-1.36-2.355Zm-22.1 31.253c1.98.512 3.95-.799 4.41-2.888.47-2.089-.74-4.219-2.7-4.711-1.98-.512-3.96.799-4.42 2.888-.48 2.11.75 4.219 2.71 4.711Zm3.11-47.514c3.94 1.004 7.91-1.597 8.85-5.796.94-4.198-1.5-8.438-5.43-9.441-3.94-1.004-7.91 1.597-8.85 5.796-.95 4.198 1.49 8.437 5.43 9.441Zm63.86 6.902c1.98.512 3.95-.799 4.41-2.888.48-2.109-.74-4.219-2.7-4.71-1.98-.512-3.96.798-4.42 2.887-.48 2.11.75 4.219 2.71 4.711Z" style="mix-blend-mode:screen"/><path fill="url(#af)" d="M979.795 952.525c-.153 1.065-1.094 1.802-2.092 1.638-.999-.164-1.69-1.167-1.536-2.232.153-1.065 1.094-1.802 2.092-1.638.999.163 1.69 1.167 1.536 2.232Zm19.546-33.137c-1.997-.327-3.878 1.147-4.186 3.277-.307 2.13 1.075 4.137 3.072 4.465 1.993.327 3.883-1.147 4.183-3.277.31-2.13-1.07-4.137-3.069-4.465Zm.689 47.616c-4.011-.655-7.755 2.294-8.35 6.574-.614 4.281 2.151 8.274 6.163 8.909 4.017.655 7.757-2.294 8.357-6.574.61-4.28-2.16-8.274-6.17-8.909Zm-64.183-1.085c-1.997-.328-3.879 1.147-4.186 3.277-.307 2.129 1.075 4.137 3.072 4.464 1.997.328 3.878-1.147 4.185-3.277.308-2.129-1.075-4.137-3.071-4.464Z" style="mix-blend-mode:screen"/><path fill="url(#ag)" d="M335.328 297.493s-1.843 2.641-2.707 3.194c-.864.574-3.898 1.127-3.898 1.127s2.477 1.966 2.995 2.888c.538.921 1.056 4.157 1.056 4.157s1.844-2.642 2.708-3.195c.864-.573 3.897-1.126 3.897-1.126s-2.477-1.966-2.995-2.888c-.538-.922-1.056-4.157-1.056-4.157Z" opacity=".5" style="mix-blend-mode:screen"/><path fill="url(#ah)" d="M212.371 150.426s-1.843 2.642-2.707 3.195c-.864.573-3.897 1.126-3.897 1.126s2.476 1.966 2.995 2.888c.537.921 1.056 4.157 1.056 4.157s1.843-2.642 2.707-3.195c.864-.573 3.898-1.126 3.898-1.126s-2.477-1.966-2.996-2.888c-.537-.921-1.056-4.157-1.056-4.157Z" opacity=".5" style="mix-blend-mode:screen"/><path fill="url(#ai)" d="M303.322 91.382s-1.844 2.642-2.708 3.195c-.864.573-3.897 1.126-3.897 1.126s2.477 1.966 2.995 2.888c.538.921 1.056 4.157 1.056 4.157s1.843-2.642 2.707-3.195c.864-.573 3.898-1.126 3.898-1.126s-2.477-1.966-2.995-2.888c-.538-.921-1.056-4.157-1.056-4.157Z" opacity=".5" style="mix-blend-mode:screen"/><path fill="url(#aj)" d="M675.59 2.232s-1.843 2.642-2.707 3.195c-.864.574-3.898 1.127-3.898 1.127s2.477 1.966 2.996 2.887c.537.922 1.056 4.158 1.056 4.158s1.843-2.642 2.707-3.195c.864-.573 3.897-1.126 3.897-1.126s-2.476-1.967-2.995-2.888c-.537-.922-1.056-4.158-1.056-4.158Z" opacity=".5" style="mix-blend-mode:screen"/><path fill="url(#ak)" d="M555.898 244.019s-1.843 2.642-2.707 3.195c-.864.574-3.898 1.127-3.898 1.127s2.477 1.966 2.995 2.887c.538.922 1.056 4.158 1.056 4.158s1.843-2.642 2.707-3.195c.864-.574 3.898-1.127 3.898-1.127s-2.477-1.966-2.995-2.887c-.538-.922-1.056-4.158-1.056-4.158Z" opacity=".5" style="mix-blend-mode:screen"/><path fill="url(#al)" d="M606.643 167.527c.231-1.045 1.229-1.7 2.208-1.455.979.246 1.594 1.311 1.364 2.356-.231 1.044-1.229 1.699-2.208 1.454-.98-.246-1.594-1.311-1.364-2.355Zm-22.099 31.252c1.978.512 3.955-.799 4.416-2.888.48-2.109-.749-4.219-2.707-4.71-1.978-.512-3.955.799-4.416 2.888-.48 2.109.749 4.218 2.707 4.71Zm3.111-47.514c3.936 1.004 7.91-1.597 8.851-5.795.94-4.199-1.498-8.438-5.434-9.442-3.936-1.003-7.91 1.598-8.851 5.796-.941 4.199 1.498 8.438 5.434 9.441Zm63.859 6.902c1.977.512 3.955-.799 4.416-2.888.48-2.109-.749-4.218-2.707-4.71-1.978-.512-3.956.799-4.416 2.888-.48 2.109.748 4.219 2.707 4.71Z" style="mix-blend-mode:screen"/><path fill="url(#am)" d="M263.482 224.154c-.154 1.065-1.095 1.802-2.093 1.638-.998-.164-1.69-1.167-1.536-2.232.154-1.065 1.094-1.802 2.093-1.639.998.164 1.689 1.168 1.536 2.233Zm19.545-33.137c-1.996-.328-3.878 1.147-4.185 3.277-.307 2.13 1.075 4.137 3.072 4.464 1.997.328 3.878-1.146 4.185-3.276.308-2.13-1.075-4.137-3.072-4.465Zm.692 47.616c-4.013-.655-7.757 2.294-8.352 6.574-.615 4.28 2.15 8.274 6.163 8.909 4.013.655 7.757-2.294 8.352-6.574.614-4.28-2.151-8.274-6.163-8.909Zm-64.186-1.085c-1.997-.328-3.878 1.146-4.186 3.276-.307 2.13 1.076 4.137 3.072 4.465 1.997.328 3.879-1.147 4.186-3.277.307-2.13-1.075-4.137-3.072-4.464Z" style="mix-blend-mode:screen"/><path fill="url(#an)" d="M768.998 114.627c-2.15-.553-4.3.86-4.819 3.154-.518 2.293.807 4.587 2.957 5.14 2.15.553 4.301-.86 4.819-3.154.519-2.294-.806-4.587-2.957-5.14Z" opacity=".5" style="mix-blend-mode:screen"/><path fill="url(#ao)" d="M781.287 358.236s-1.344 1.905-1.978 2.314c-.634.41-2.842.82-2.842.82s1.786 1.433 2.17 2.109c.384.676.768 3.031.768 3.031s1.344-1.905 1.977-2.314c.634-.41 2.842-.819 2.842-.819s-1.786-1.434-2.17-2.11c-.384-.676-.767-3.031-.767-3.031Z" opacity=".5" style="mix-blend-mode:screen"/><path fill="url(#ap)" d="M692.083 251.515s-1.344 1.905-1.977 2.314c-.634.41-2.842.819-2.842.819s1.786 1.434 2.17 2.11c.384.676.768 3.031.768 3.031s1.344-1.905 1.977-2.314c.634-.41 2.842-.82 2.842-.82s-1.786-1.433-2.17-2.109c-.384-.676-.768-3.031-.768-3.031Z" opacity=".5" style="mix-blend-mode:screen"/><path fill="url(#aq)" d="M758.055 208.671s-1.344 1.904-1.978 2.314c-.634.41-2.842.819-2.842.819s1.786 1.434 2.17 2.11c.384.675.768 3.031.768 3.031s1.344-1.905 1.978-2.315c.633-.409 2.841-.819 2.841-.819s-1.785-1.433-2.169-2.109c-.384-.676-.768-3.031-.768-3.031Z" opacity=".5" style="mix-blend-mode:screen"/><path fill="url(#ar)" d="M1028.18 143.974s-1.34 1.905-1.98 2.315c-.63.409-2.84.819-2.84.819s1.79 1.434 2.17 2.109c.38.676.77 3.031.77 3.031s1.34-1.904 1.98-2.314c.63-.409 2.84-.819 2.84-.819s-1.79-1.434-2.17-2.109c-.39-.676-.77-3.032-.77-3.032Z" opacity=".5" style="mix-blend-mode:screen"/><path fill="url(#as)" d="M941.338 319.427s-1.344 1.904-1.978 2.314c-.634.409-2.822.819-2.822.819s1.785 1.434 2.169 2.11c.384.675.768 3.031.768 3.031s1.344-1.905 1.978-2.315c.633-.409 2.841-.819 2.841-.819s-1.785-1.433-2.169-2.109c-.384-.676-.768-3.031-.768-3.031h-.019Z" opacity=".5" style="mix-blend-mode:screen"/><path fill="url(#at)" d="M978.144 263.926c.173-.758.883-1.229 1.613-1.045.729.185 1.152.942.979 1.721-.173.778-.883 1.228-1.613 1.044-.71-.184-1.152-.942-.979-1.72Zm-16.032 22.671c1.44.369 2.861-.573 3.206-2.109.346-1.516-.537-3.052-1.977-3.42-1.421-.369-2.861.573-3.207 2.109-.345 1.516.538 3.052 1.978 3.42Zm2.246-34.468c2.861.738 5.741-1.147 6.413-4.198.672-3.052-1.075-6.124-3.936-6.84-2.861-.738-5.741 1.146-6.413 4.198-.691 3.052 1.076 6.124 3.936 6.84Zm46.332 4.997c1.44.369 2.86-.573 3.2-2.109.35-1.516-.53-3.052-1.97-3.42-1.44-.369-2.86.573-3.21 2.109-.35 1.536.54 3.052 1.98 3.42Z" style="mix-blend-mode:screen"/><path fill="url(#au)" d="M729.159 305.009c-.116.778-.788 1.31-1.517 1.188-.73-.123-1.229-.84-1.114-1.618.115-.779.787-1.311 1.517-1.188.73.123 1.229.84 1.114 1.618Zm14.169-24.044c-1.459-.225-2.803.84-3.033 2.376-.212 1.556.787 2.99 2.227 3.236 1.459.225 2.803-.84 3.033-2.376.212-1.556-.787-2.99-2.227-3.236Zm.499 34.55c-2.899-.471-5.625 1.659-6.067 4.772-.441 3.092 1.555 6 4.474 6.472 2.899.471 5.625-1.659 6.067-4.772.442-3.093-1.555-6.001-4.474-6.472Zm-46.56-.799c-1.459-.225-2.803.84-3.033 2.376-.231 1.536.787 2.99 2.227 3.236s2.803-.84 3.034-2.376c.211-1.556-.788-2.99-2.228-3.236Z" style="mix-blend-mode:screen"/><path fill="url(#av)" d="M713.395 902.308c1.152 2.007 3.629 2.642 5.51 1.413 1.882-1.229 2.477-3.871 1.325-5.878s-3.629-2.642-5.51-1.413c-1.882 1.229-2.477 3.871-1.325 5.878Z" opacity=".5" style="mix-blend-mode:screen"/><path fill="url(#aw)" d="M866.208 720.773s2.227-.348 2.938-.164c.71.185 2.553 1.557 2.553 1.557s-.326-2.376-.153-3.134c.172-.757 1.459-2.724 1.459-2.724s-2.227.349-2.938.164c-.71-.184-2.553-1.556-2.553-1.556s.326 2.375.153 3.133c-.173.758-1.459 2.724-1.459 2.724Z" opacity=".5" style="mix-blend-mode:screen"/><path fill="url(#ax)" d="M858.547 863.539s2.228-.348 2.938-.163c.71.184 2.554 1.556 2.554 1.556s-.327-2.376-.154-3.133c.173-.758 1.459-2.724 1.459-2.724s-2.227.348-2.937.164c-.711-.185-2.554-1.557-2.554-1.557s.326 2.376.154 3.134c-.173.757-1.46 2.723-1.46 2.723Z" opacity=".5" style="mix-blend-mode:screen"/><path fill="url(#ay)" d="M783.494 844.063s2.227-.348 2.938-.164c.71.184 2.553 1.557 2.553 1.557s-.326-2.376-.153-3.134c.173-.758 1.459-2.724 1.459-2.724s-2.227.348-2.938.164c-.71-.184-2.553-1.556-2.553-1.556s.326 2.375.153 3.133c-.172.758-1.459 2.724-1.459 2.724Z" opacity=".5" style="mix-blend-mode:screen"/><path fill="url(#az)" d="M549.6 686.06s2.227-.348 2.938-.164c.71.184 2.553 1.556 2.553 1.556s-.326-2.375-.153-3.133c.172-.758 1.459-2.724 1.459-2.724s-2.227.348-2.938.164c-.71-.184-2.553-1.557-2.553-1.557s.326 2.376.153 3.134c-.172.758-1.459 2.724-1.459 2.724Z" opacity=".5" style="mix-blend-mode:screen"/><path fill="url(#aA)" d="M727.315 627.507s2.228-.348 2.938-.164c.71.185 2.554 1.557 2.554 1.557s-.327-2.376-.154-3.134c.173-.757 1.459-2.723 1.459-2.723s-2.208.348-2.937.163c-.711-.184-2.554-1.556-2.554-1.556s.326 2.376.154 3.133c-.173.758-1.46 2.724-1.46 2.724Z" opacity=".5" style="mix-blend-mode:screen"/><path fill="url(#aB)" d="M664.474 638.997c-.634.409-1.44.204-1.824-.471-.384-.676-.192-1.536.441-1.946.634-.41 1.44-.205 1.824.471.384.676.192 1.536-.441 1.946Zm26.38-3.933c-.768-1.331-2.4-1.761-3.667-.942-1.248.82-1.651 2.56-.883 3.912.768 1.331 2.4 1.761 3.667.942 1.248-.819 1.651-2.56.883-3.912Zm-24.441 22.672c-1.536-2.683-4.819-3.502-7.335-1.864-2.515 1.639-3.283 5.141-1.747 7.824 1.536 2.682 4.819 3.502 7.335 1.863 2.515-1.638 3.283-5.14 1.747-7.823Zm-29.453-38.482c-.768-1.331-2.4-1.761-3.667-.942-1.248.819-1.651 2.56-.883 3.912.768 1.331 2.4 1.761 3.667.942 1.248-.82 1.651-2.56.883-3.912Z" style="mix-blend-mode:screen"/><path fill="url(#aC)" d="M867.782 797.737c.595-.471 1.421-.328 1.863.307a1.478 1.478 0 0 1-.288 1.987c-.596.471-1.421.327-1.863-.307a1.478 1.478 0 0 1 .288-1.987Zm-25.958 6.308c.864 1.27 2.534 1.536 3.725.594 1.19-.922 1.44-2.704.556-3.973-.864-1.27-2.534-1.536-3.724-.594-1.191.921-1.44 2.703-.557 3.973Zm22.56-24.801c1.747 2.519 5.088 3.051 7.449 1.208 2.362-1.864 2.861-5.427 1.133-7.946-1.728-2.519-5.088-3.052-7.449-1.209-2.362 1.864-2.861 5.428-1.133 7.947Zm32.409 35.676c.864 1.27 2.535 1.536 3.725.594 1.191-.922 1.44-2.704.557-3.973-.864-1.27-2.534-1.536-3.725-.594-1.19.921-1.44 2.703-.557 3.973Z" style="mix-blend-mode:screen"/><path fill="url(#aD)" d="M260.563 785.879c1.594 2.765 4.992 3.625 7.584 1.925 2.592-1.7 3.399-5.325 1.805-8.089-1.594-2.765-4.992-3.625-7.584-1.926-2.592 1.7-3.398 5.325-1.805 8.09Z" opacity=".5" style="mix-blend-mode:screen"/><path fill="url(#aE)" d="M471.149 535.716s3.053-.471 4.032-.225c.979.245 3.514 2.15 3.514 2.15s-.442-3.256-.212-4.301c.231-1.044 2.016-3.748 2.016-3.748s-3.052.471-4.032.226c-.979-.246-3.513-2.151-3.513-2.151s.441 3.257.211 4.301c-.23 1.045-2.016 3.748-2.016 3.748Z" opacity=".5" style="mix-blend-mode:screen"/><path fill="url(#aF)" d="M460.589 732.447s3.053-.471 4.032-.225c.979.245 3.513 2.15 3.513 2.15s-.441-3.256-.211-4.301c.231-1.044 2.016-3.748 2.016-3.748s-3.053.471-4.032.226c-.979-.246-3.513-2.151-3.513-2.151s.441 3.257.211 4.301c-.231 1.044-2.016 3.748-2.016 3.748Z" opacity=".5" style="mix-blend-mode:screen"/><path fill="url(#aG)" d="M357.139 705.597s3.053-.471 4.032-.225c.979.246 3.514 2.151 3.514 2.151s-.442-3.257-.211-4.301c.23-1.045 2.016-3.748 2.016-3.748s-3.053.471-4.032.225c-.98-.246-3.514-2.15-3.514-2.15s.442 3.256.211 4.301c-.23 1.044-2.016 3.747-2.016 3.747Z" opacity=".5" style="mix-blend-mode:screen"/><path fill="url(#aH)" d="M34.81 487.854s3.052-.471 4.032-.225c.979.246 3.513 2.15 3.513 2.15s-.441-3.256-.211-4.3c.23-1.045 2.016-3.748 2.016-3.748s-3.053.471-4.032.225c-.98-.246-3.514-2.15-3.514-2.15s.442 3.256.212 4.3c-.23 1.045-2.016 3.748-2.016 3.748Z" opacity=".5" style="mix-blend-mode:screen"/><path fill="url(#aI)" d="M279.725 407.163s3.052-.471 4.032-.225c.979.245 3.513 2.15 3.513 2.15s-.441-3.256-.211-4.301c.23-1.044 2.016-3.747 2.016-3.747s-3.053.471-4.032.225c-.979-.246-3.514-2.151-3.514-2.151s.442 3.257.212 4.301c-.231 1.045-2.016 3.748-2.016 3.748Z" opacity=".5" style="mix-blend-mode:screen"/><path fill="url(#aJ)" d="M193.133 422.994c-.864.573-1.997.287-2.515-.635-.538-.921-.269-2.13.595-2.683.864-.573 1.997-.286 2.515.635.538.922.269 2.13-.595 2.683Zm36.346-5.427c-1.056-1.843-3.322-2.417-5.05-1.29-1.728 1.126-2.266 3.543-1.21 5.386s3.322 2.416 5.05 1.29c1.728-1.126 2.266-3.543 1.21-5.386Zm-33.696 31.252c-2.112-3.686-6.644-4.833-10.1-2.58-3.456 2.253-4.531 7.086-2.419 10.772 2.112 3.687 6.643 4.834 10.099 2.581 3.456-2.253 4.532-7.086 2.42-10.773Zm-40.589-53.043c-1.056-1.843-3.322-2.417-5.05-1.29-1.728 1.126-2.265 3.543-1.209 5.386s3.321 2.417 5.049 1.29c1.728-1.126 2.266-3.543 1.21-5.386Z" style="mix-blend-mode:screen"/><path fill="url(#aK)" d="M473.338 641.761c.806-.635 1.958-.45 2.573.41.595.86.422 2.089-.384 2.744-.807.635-1.959.451-2.573-.409-.595-.86-.423-2.089.384-2.745Zm-35.789 8.704c1.21 1.741 3.494 2.11 5.126.82 1.632-1.291 1.978-3.728.768-5.469-1.209-1.74-3.494-2.109-5.126-.819-1.632 1.29-1.978 3.728-.768 5.468Zm31.085-34.181c2.4 3.482 7.008 4.219 10.272 1.659 3.264-2.56 3.955-7.475 1.555-10.957-2.4-3.481-7.008-4.219-10.272-1.659-3.264 2.56-3.955 7.476-1.555 10.957Zm44.659 49.173c1.21 1.741 3.494 2.109 5.126.819 1.632-1.29 1.978-3.727.768-5.468-1.209-1.741-3.494-2.11-5.126-.819-1.632 1.29-1.978 3.727-.768 5.468Z" style="mix-blend-mode:screen"/><path fill="url(#aL)" d="M1255.32 538.296c1.59 2.765 4.99 3.625 7.58 1.926 2.59-1.7 3.4-5.325 1.8-8.09-1.59-2.765-4.99-3.625-7.58-1.925s-3.4 5.325-1.8 8.089Z" opacity=".5" style="mix-blend-mode:screen"/><path fill="url(#aM)" d="M1351.89 458.035s3.05-.471 4.03-.225c.98.246 3.52 2.15 3.52 2.15s-.44-3.256-.21-4.3c.23-1.045 2.01-3.748 2.01-3.748s-3.05.471-4.03.225c-.98-.246-3.51-2.15-3.51-2.15s.44 3.256.21 4.301c-.23 1.044-2.02 3.747-2.02 3.747Z" opacity=".5" style="mix-blend-mode:screen"/><path fill="url(#aN)" d="M1029.56 240.292s3.05-.471 4.03-.225c.98.245 3.52 2.15 3.52 2.15s-.44-3.256-.21-4.301c.23-1.044 2.01-3.748 2.01-3.748s-3.05.471-4.03.226c-.98-.246-3.51-2.151-3.51-2.151s.44 3.257.21 4.301c-.23 1.045-2.02 3.748-2.02 3.748Z" opacity=".5" style="mix-blend-mode:screen"/><path fill="url(#aO)" d="M1274.5 159.58s3.05-.471 4.03-.225c.98.246 3.51 2.15 3.51 2.15s-.44-3.256-.21-4.3c.23-1.045 2.02-3.748 2.02-3.748s-3.06.471-4.04.225c-.97-.246-3.51-2.15-3.51-2.15s.44 3.256.21 4.3c-.23 1.045-2.01 3.748-2.01 3.748Z" opacity=".5" style="mix-blend-mode:screen"/><path fill="url(#aP)" d="M1187.88 175.411c-.86.574-1.99.287-2.51-.635-.54-.921-.27-2.129.59-2.682.87-.574 2-.287 2.52.634.54.922.27 2.13-.6 2.683Zm36.35-5.427c-1.06-1.843-3.32-2.416-5.05-1.29s-2.26 3.543-1.21 5.386c1.06 1.843 3.32 2.417 5.05 1.29 1.73-1.126 2.27-3.543 1.21-5.386Zm-33.7 31.253c-2.11-3.687-6.64-4.834-10.09-2.581-3.46 2.253-4.54 7.086-2.42 10.773 2.11 3.686 6.64 4.833 10.1 2.58 3.45-2.253 4.53-7.086 2.41-10.772Zm-40.58-53.044c-1.06-1.843-3.33-2.416-5.05-1.29-1.73 1.127-2.27 3.543-1.21 5.386 1.05 1.844 3.32 2.417 5.05 1.291 1.72-1.127 2.26-3.543 1.21-5.387Z" style="mix-blend-mode:screen"/><path fill="url(#aQ)" d="M1468.09 394.179c.81-.635 1.96-.451 2.57.409.6.86.42 2.089-.38 2.745-.81.634-1.96.45-2.57-.41-.6-.86-.43-2.089.38-2.744Zm-35.79 8.704c1.21 1.74 3.5 2.109 5.13.819s1.97-3.728.77-5.468c-1.21-1.741-3.5-2.11-5.13-.82-1.63 1.291-1.98 3.728-.77 5.469Zm31.09-34.182c2.4 3.482 7 4.219 10.27 1.659 3.26-2.56 3.95-7.475 1.55-10.956-2.4-3.482-7.01-4.219-10.27-1.659-3.26 2.56-3.95 7.475-1.55 10.956Zm44.65 49.173c1.21 1.741 3.5 2.109 5.13.819s1.98-3.727.77-5.468-3.5-2.109-5.13-.819-1.97 3.727-.77 5.468Z" style="mix-blend-mode:screen"/><path fill="url(#aR)" d="M1396.51 436.306c142.86 0 258.66-123.528 258.66-275.907 0-152.379-115.8-275.906-258.66-275.906-142.85 0-258.66 123.527-258.66 275.906 0 152.379 115.81 275.907 258.66 275.907Z" opacity=".5" style="mix-blend-mode:screen"/><path fill="url(#aS)" d="M289.567 374.982c101.014-107.748 101.014-282.442 0-390.19-101.014-107.749-264.79-107.749-365.804 0-101.014 107.748-101.014 282.442 0 390.19 101.014 107.749 264.79 107.749 365.804 0Z" opacity=".5" style="mix-blend-mode:screen"/><path fill="url(#aT)" d="M284.539 1128.69c101.014-107.75 101.014-282.441 0-390.189-101.014-107.749-264.79-107.749-365.804 0-101.014 107.748-101.014 282.439 0 390.189s264.79 107.75 365.804 0Z" opacity=".5" style="mix-blend-mode:screen"/><path fill="url(#aU)" d="M1133.2 1269.53c206.44 0 373.79-178.5 373.79-398.7 0-220.198-167.35-398.705-373.79-398.705-206.433 0-373.783 178.507-373.783 398.705 0 220.2 167.35 398.7 373.783 398.7Z" opacity=".5" style="mix-blend-mode:screen"/><path fill="url(#aV)" d="M974.716 752.181c145.974-155.704 145.974-408.149 0-563.853-145.972-155.704-382.64-155.704-528.612 0-145.973 155.704-145.973 408.149 0 563.853 145.972 155.704 382.64 155.704 528.612 0Z" opacity=".5" style="mix-blend-mode:screen"/><path fill="url(#aW)" d="M-31.354 563.835C231.456 361.001 515.443 184.955 823.45 76.37c57.255-20.193 115.623-38.093 175.604-44.728 43.157-4.772 95.447 1.536 115.717 42.475 7.3 14.725 9.06 31.949 7.85 48.538-5.03 69.284-56.77 122.839-104.73 169.881-64.361 63.14-128.047 127.284-196.821 184.873-70.176 58.758-145.575 110.633-211.335 174.92-65.76 64.287-122.611 143.606-142.771 236.298-4.166 19.17-5.626 42.333 8.102 55.501 14.381 13.804 36.807 8.684 55.258 2.437 203.309-68.669 397.901-173.097 609.117-204.472 14.17-2.109 29.4-3.686 42.07 3.379 25.86 14.459 25.56 54.436 15.74 83.784-16.47 49.316-48.51 90.87-82.5 128.635-83.27 92.529-181.169 168.409-278.494 243.729-6.067-32.56-46.848-38.68-77.875-36.23a1324.317 1324.317 0 0 0-243.725 42.6c-11.501-24.82 12.019-51.12 32.947-67.5 75.725-59.33 151.469-118.64 227.194-177.971-136.032 1.946-261.524 76.291-395.328 102.601-28.781 5.66-58.58 9.06-87.168 2.34-28.57-6.72-56.007-24.95-68.64-53.11-12.519-27.869-8.928-61.518 2.764-89.801 11.693-28.283 30.682-52.285 49.402-75.878 79.181-99.717 169.594-196.26 240.365-302.551 11.328-17.019 20.352-36.926 19.795-57.795-.211-8.048-2.016-16.363-6.912-22.487-10.637-13.312-30.547-10.998-45.85-4.69-51.84 21.34-105.408 58.942-148.012 96.4-57.466 50.503-122.516 93.798-186.029 135.004-27.763 18.022-56.621 35.696-88.589 41.84-31.968 6.144-68.083-1.269-89.76-27.074-28.128-33.464-23.866-85.402-10.426-128C-23.866 529.531 2.131 483.451 36 445.317" opacity=".5" style="mix-blend-mode:screen"/><path fill="url(#aX)" d="M1785.06 297.451c-127.56 89.58-243.61 197.161-373.42 283.014-129.81 85.852-278.78 150.384-431.231 140.39-3.091-.205-6.259-.451-9.043-1.864-14.784-7.475-3.629-31.252 8.467-43.008C1065.68 592.65 1144.32 500.9 1214.44 402.248c34.17-48.067 66.37-97.956 93.23-151.122 11.83-23.409 69.64-140.718 11.37-148.255-27.46-3.543-65.4 13.066-87.69 29.061-38.15 27.402-67.47 66.314-97.44 103.527-63.41 78.684-132.44 152.227-206.281 219.77-24.903 22.774-50.689 45.097-80.372 59.945-6.393 3.195-13.478 6.083-20.352 4.342-20.947-5.345-14.15-39.281-1.555-57.917 34.848-51.549 78.087-95.99 115.239-145.675 37.132-49.705-50.689-4.177-44.871-67.44 3.149-34.263 115.792-176.17 89.261-195.748-31.066-22.917-73.613-9.4-107.674 8.008-96.672 49.397-179.98 123.453-267.206 189.931-87.226 66.478-182.534 127.222-288.634 143.565-7.948 1.229-16.416 2.109-23.692-1.536-20.372-10.22-14.324-42.742-3.629-63.857 36.537-72.13 89.913-132.649 142.675-192.266 82.099-92.774 164.198-185.549 246.317-278.323 38.611-43.622 77.683-87.675 124.665-120.627 47.002-32.973 103.373-54.313 159.226-47.371A2469347.65 2469347.65 0 0 1 753.024-52.429c-17.395 20.91-36.039 47.74-27.495 74.158 53.895 3.502 102.643-30.679 149.319-59.637 66.105-41.001 136.592-74.015 209.622-98.161 18.09-5.98 41.92-9.421 52.25 7.516 7.25 11.899 3.36 27.73-1.9 40.776-41.98 103.854-152.952 166.134-182.04 274.903-2.457 9.154-4.166 19.394-.153 27.893 9.485 20.05 37.824 12.493 56.143 1.414 101.58-61.44 190.54-143.647 286.02-215.368 95.48-71.7 201.47-134.369 317.53-148.07 46.1-5.448 101.2 1.945 124.36 44.81 24.84 46.018-1.75 103.547-30.49 146.903-53.92 81.367-117.29 155.586-188.2 220.447-48.88 44.707-102.24 86.036-137.76 143.339-13.02 21.013-23.64 44.872-23.77 70.062-.13 25.19 12.44 51.692 34.43 60.867 11.9 4.956 25.13 4.526 37.82 3.113 107.96-11.92 203.29-87.02 311.4-97.035 18.07-1.679 38.48-.532 50.96 13.476 13.1 14.705 12.16 39.056 2.82 56.709-9.35 17.675-25.26 30.106-40.93 41.575-95.21 69.693-199.76 124.825-309.49 163.205" opacity=".5" style="mix-blend-mode:screen"/><path fill="url(#aY)" d="M1452.73 374.804c-159.96 152.843-340.86 280.187-493.633 441.181-56.313 59.33-111.878 132.259-108.825 216.635.192 5.53.748 11.33 3.628 15.92 6.221 9.93 19.757 9.85 30.797 7.9 138.393-24.6 237.643-168.059 375.763-194.355 1.36 21.258-14.23 38.933-28.51 53.822-63.84 66.58-126.89 141.683-145.4 234.863-.94 4.75-1.62 10.24 1.28 13.99 3.29 4.22 9.32 4.01 14.4 3.28 74.08-10.8 140.14-56 195.71-109.35 55.56-53.35 103.06-115.586 157.48-170.268 61.61-61.931 132.84-115.179 179.42-190.587-12.96-9.072-30.58-7.147-44.35.472-13.77 7.598-24.56 20.008-35.18 32.071-56.48 64.103-116.44 124.723-179.46 181.453-24.25 21.832-50.22 43.766-81.25 50.852 59.63-88.842 151.26-153.703 192.29-253.829 3.18-7.783 6.04-16.691 3.05-24.556-2.73-7.147-9.64-11.448-16.49-13.988-26.52-9.81-55.8-.573-81.37 11.694-78.99 37.909-147.21 105.472-232.8 119.522-12.39 2.027-28.78.225-32.11-12.657-1.69-6.574 1.02-13.455 3.98-19.517 28.68-59.003 82.17-98.694 132.04-138.527 70.36-56.218 139.41-119.992 176.73-204.902 5.26-11.961 9.87-25.908 4.98-38.032-4.9-12.144-23.85-16.671-29.17-4.751" opacity=".5" style="mix-blend-mode:screen"/><path fill="url(#aZ)" d="M568.627-111.677c-81.043 98.693-123.898 253.911-222.931 331.714-13.613 10.691-27.936 21.156-44.391 25.334-16.435 4.178-35.577.799-46.732-12.739-11.098-13.496-11.847-33.484-8.967-51.179 13.229-80.896 85.882-136.909 108.653-215.347 4.704-16.22 6.182-36.475-5.779-47.678-9.37-8.765-23.463-8.356-35.597-5.304-39.552 9.974-70.618 41.41-101.05 70.144a1285.382 1285.382 0 0 1-105.446 89.375C91.584 83.886 72.365 95.15 56.313 86.057c12.5-34.57 36.27-62.915 59.52-90.46 43.104-51.098 86.4-102.83 118.522-162.427 8.87-16.445 16.954-36.536 9.446-53.74-24.364-.737-46.233 14.951-65.491 30.884C77.779-106.557-3.552-.45-83.943 104.653c-20.448 26.747-41.203 54.006-53.299 86.016-4.646 12.308-8.006 25.641-6.182 38.769 1.824 13.127 9.773 25.927 21.677 29.798 7.238 2.355 15.072 1.249 22.387-.737 38.304-10.466 66.931-43.295 95.424-72.52 28.646-29.389 59.328-56.504 91.718-81.06 21.485-16.302 47.405-32.174 72.826-24.658-10.656 21.054-30.125 34.98-46.752 51.057-16.608 16.077-31.719 38.052-28.685 61.768.595 4.73 2.093 9.605 5.53 12.656 6.739 6.001 16.934 2.192 24.595-2.416 50.073-30.168 83.635-83.026 123.302-127.407 9.543-10.67 21.466-21.708 35.232-20.254-17.28 55.931-54.278 102.277-92.947 144.322-80.218 87.225-171.744 163.39-241.44 260.403-21.1 29.369-40.627 62.178-43.738 99.001-1.344 15.954.826 33.055 10.061 45.691 19.776 27.074 59.367 21.217 89.549 9.298 90.317-35.636 167.77-100.741 237.869-171.193C377.683 297.964 498.029 125.399 586.867-64.041c8.41-17.92 17.165-36.802 32.602-48.21l-50.861.574h.019Z" opacity=".5" style="mix-blend-mode:screen"/></g></g><defs><radialGradient id="d" cx="0" cy="0" r="1" gradientTransform="matrix(611.885 0 0 652.677 720 512)" gradientUnits="userSpaceOnUse"><stop offset=".06" stop-color="#001256"/><stop offset=".96" stop-color="#00092B"/></radialGradient><radialGradient id="e" cx="0" cy="0" r="1" gradientTransform="matrix(431.232 0 0 459.98 309.465 465.9)" gradientUnits="userSpaceOnUse"><stop offset=".06" stop-color="#0A1656"/><stop offset=".89" stop-color="#4478AF"/></radialGradient><radialGradient id="f" cx="0" cy="0" r="1" gradientTransform="matrix(431.232 0 0 459.981 309.465 465.9)" gradientUnits="userSpaceOnUse"><stop offset=".06" stop-color="#0A1656"/><stop offset=".89" stop-color="#4478AF"/></radialGradient><radialGradient id="g" cx="0" cy="0" r="1" gradientTransform="matrix(431.232 0 0 459.981 309.465 465.9)" gradientUnits="userSpaceOnUse"><stop offset=".06" stop-color="#0A1656"/><stop offset=".89" stop-color="#4478AF"/></radialGradient><radialGradient id="h" cx="0" cy="0" r="1" gradientTransform="matrix(431.232 0 0 459.981 309.465 465.9)" gradientUnits="userSpaceOnUse"><stop offset=".06" stop-color="#0A1656"/><stop offset=".89" stop-color="#4478AF"/></radialGradient><radialGradient id="i" cx="0" cy="0" r="1" gradientTransform="matrix(431.232 0 0 459.981 309.465 465.9)" gradientUnits="userSpaceOnUse"><stop offset=".06" stop-color="#0A1656"/><stop offset=".89" stop-color="#4478AF"/></radialGradient><radialGradient id="j" cx="0" cy="0" r="1" gradientTransform="matrix(431.213 0 0 459.96 309.466 465.899)" gradientUnits="userSpaceOnUse"><stop offset=".06" stop-color="#0A1656"/><stop offset=".89" stop-color="#4478AF"/></radialGradient><radialGradient id="k" cx="0" cy="0" r="1" gradientTransform="matrix(33.8496 0 0 36.1062 127.584 235.705)" gradientUnits="userSpaceOnUse"><stop offset=".06" stop-color="#0A1656"/><stop offset=".89" stop-color="#4478AF"/></radialGradient><radialGradient id="l" cx="0" cy="0" r="1" gradientTransform="rotate(174.818 230.265 61.86) scale(33.8663 36.0884)" gradientUnits="userSpaceOnUse"><stop offset=".06" stop-color="#0A1656"/><stop offset=".89" stop-color="#4478AF"/></radialGradient><radialGradient id="m" cx="0" cy="0" r="1" gradientTransform="matrix(431.236 0 0 459.98 1164.96 996.577)" gradientUnits="userSpaceOnUse"><stop offset=".06" stop-color="#0A1656"/><stop offset=".89" stop-color="#4478AF"/></radialGradient><radialGradient id="n" cx="0" cy="0" r="1" gradientTransform="matrix(431.23 0 0 459.981 1164.96 996.577)" gradientUnits="userSpaceOnUse"><stop offset=".06" stop-color="#0A1656"/><stop offset=".89" stop-color="#4478AF"/></radialGradient><radialGradient id="o" cx="0" cy="0" r="1" gradientTransform="matrix(431.23 0 0 459.981 1164.96 996.578)" gradientUnits="userSpaceOnUse"><stop offset=".06" stop-color="#0A1656"/><stop offset=".89" stop-color="#4478AF"/></radialGradient><radialGradient id="p" cx="0" cy="0" r="1" gradientTransform="matrix(431.23 0 0 459.981 1164.96 996.578)" gradientUnits="userSpaceOnUse"><stop offset=".06" stop-color="#0A1656"/><stop offset=".89" stop-color="#4478AF"/></radialGradient><radialGradient id="q" cx="0" cy="0" r="1" gradientTransform="matrix(431.23 0 0 459.981 1164.96 996.577)" gradientUnits="userSpaceOnUse"><stop offset=".06" stop-color="#0A1656"/><stop offset=".89" stop-color="#4478AF"/></radialGradient><radialGradient id="r" cx="0" cy="0" r="1" gradientTransform="matrix(431.234 0 0 459.981 1164.94 996.578)" gradientUnits="userSpaceOnUse"><stop offset=".06" stop-color="#0A1656"/><stop offset=".89" stop-color="#4478AF"/></radialGradient><radialGradient id="s" cx="0" cy="0" r="1" gradientTransform="matrix(33.8496 0 0 36.1062 983.059 766.362)" gradientUnits="userSpaceOnUse"><stop offset=".06" stop-color="#0A1656"/><stop offset=".89" stop-color="#4478AF"/></radialGradient><radialGradient id="t" cx="0" cy="0" r="1" gradientTransform="rotate(174.818 645.974 346.58) scale(33.8663 36.0884)" gradientUnits="userSpaceOnUse"><stop offset=".06" stop-color="#0A1656"/><stop offset=".89" stop-color="#4478AF"/></radialGradient><radialGradient id="u" cx="0" cy="0" r="1" gradientTransform="matrix(312.903 0 0 333.763 734.879 932.905)" gradientUnits="userSpaceOnUse"><stop offset=".06" stop-color="#0A1656"/><stop offset=".89" stop-color="#4478AF"/></radialGradient><radialGradient id="v" cx="0" cy="0" r="1" gradientTransform="matrix(312.901 0 0 333.764 734.88 932.906)" gradientUnits="userSpaceOnUse"><stop offset=".06" stop-color="#0A1656"/><stop offset=".89" stop-color="#4478AF"/></radialGradient><radialGradient id="w" cx="0" cy="0" r="1" gradientTransform="matrix(312.904 0 0 333.764 734.879 932.906)" gradientUnits="userSpaceOnUse"><stop offset=".06" stop-color="#0A1656"/><stop offset=".89" stop-color="#4478AF"/></radialGradient><radialGradient id="x" cx="0" cy="0" r="1" gradientTransform="matrix(312.904 0 0 333.764 734.879 932.906)" gradientUnits="userSpaceOnUse"><stop offset=".06" stop-color="#0A1656"/><stop offset=".89" stop-color="#4478AF"/></radialGradient><radialGradient id="y" cx="0" cy="0" r="1" gradientTransform="matrix(312.882 0 0 333.741 734.879 932.905)" gradientUnits="userSpaceOnUse"><stop offset=".06" stop-color="#0A1656"/><stop offset=".89" stop-color="#4478AF"/></radialGradient><radialGradient id="z" cx="0" cy="0" r="1" gradientTransform="matrix(312.901 0 0 333.761 734.879 932.904)" gradientUnits="userSpaceOnUse"><stop offset=".06" stop-color="#0A1656"/><stop offset=".89" stop-color="#4478AF"/></radialGradient><radialGradient id="A" cx="0" cy="0" r="1" gradientTransform="matrix(24.5568 0 0 26.1939 602.899 765.85)" gradientUnits="userSpaceOnUse"><stop offset=".06" stop-color="#0A1656"/><stop offset=".89" stop-color="#4478AF"/></radialGradient><radialGradient id="B" cx="0" cy="0" r="1" gradientTransform="matrix(-24.46848 2.21906 -2.36466 -26.074 847.815 669.396)" gradientUnits="userSpaceOnUse"><stop offset=".06" stop-color="#0A1656"/><stop offset=".89" stop-color="#4478AF"/></radialGradient><radialGradient id="C" cx="0" cy="0" r="1" gradientTransform="matrix(-221.25335 -236.0068 235.5158 -220.79306 851.553 114.78)" gradientUnits="userSpaceOnUse"><stop offset=".06" stop-color="#0A1656"/><stop offset=".89" stop-color="#4478AF"/></radialGradient><radialGradient id="D" cx="0" cy="0" r="1" gradientTransform="matrix(-221.25747 -236.00293 235.51268 -220.79786 851.567 114.767)" gradientUnits="userSpaceOnUse"><stop offset=".06" stop-color="#0A1656"/><stop offset=".89" stop-color="#4478AF"/></radialGradient><radialGradient id="E" cx="0" cy="0" r="1" gradientTransform="matrix(-221.25403 -236.00752 235.51654 -220.79374 851.553 114.78)" gradientUnits="userSpaceOnUse"><stop offset=".06" stop-color="#0A1656"/><stop offset=".89" stop-color="#4478AF"/></radialGradient><radialGradient id="F" cx="0" cy="0" r="1" gradientTransform="matrix(-221.25335 -236.0068 235.51654 -220.79374 851.554 114.78)" gradientUnits="userSpaceOnUse"><stop offset=".06" stop-color="#0A1656"/><stop offset=".89" stop-color="#4478AF"/></radialGradient><radialGradient id="G" cx="0" cy="0" r="1" gradientTransform="matrix(-221.25403 -236.00752 235.51654 -220.79374 851.553 114.78)" gradientUnits="userSpaceOnUse"><stop offset=".06" stop-color="#0A1656"/><stop offset=".89" stop-color="#4478AF"/></radialGradient><radialGradient id="H" cx="0" cy="0" r="1" gradientTransform="matrix(-221.25403 -236.00752 235.51654 -220.79374 851.553 114.78)" gradientUnits="userSpaceOnUse"><stop offset=".06" stop-color="#0A1656"/><stop offset=".89" stop-color="#4478AF"/></radialGradient><radialGradient id="I" cx="0" cy="0" r="1" gradientTransform="matrix(-17.36418 -18.52205 18.48353 -17.32807 834.148 332.438)" gradientUnits="userSpaceOnUse"><stop offset=".06" stop-color="#0A1656"/><stop offset=".89" stop-color="#4478AF"/></radialGradient><radialGradient id="J" cx="0" cy="0" r="1" gradientTransform="matrix(-17.81216 -18.9999 18.96043 -17.77516 597.715 217.353)" gradientUnits="userSpaceOnUse"><stop offset=".06" stop-color="#0A1656"/><stop offset=".89" stop-color="#4478AF"/></radialGradient><radialGradient id="K" cx="0" cy="0" r="1" gradientTransform="rotate(-133.152 709.968 -231.568) scale(445.838 444.911)" gradientUnits="userSpaceOnUse"><stop offset=".06" stop-color="#0A1656"/><stop offset=".89" stop-color="#4478AF"/></radialGradient><radialGradient id="L" cx="0" cy="0" r="1" gradientTransform="rotate(-133.152 709.968 -231.568) scale(445.837 444.91)" gradientUnits="userSpaceOnUse"><stop offset=".06" stop-color="#0A1656"/><stop offset=".89" stop-color="#4478AF"/></radialGradient><radialGradient id="M" cx="0" cy="0" r="1" gradientTransform="rotate(-133.152 709.968 -231.568) scale(445.837 444.91)" gradientUnits="userSpaceOnUse"><stop offset=".06" stop-color="#0A1656"/><stop offset=".89" stop-color="#4478AF"/></radialGradient><radialGradient id="N" cx="0" cy="0" r="1" gradientTransform="rotate(-133.152 709.968 -231.568) scale(445.837 444.91)" gradientUnits="userSpaceOnUse"><stop offset=".06" stop-color="#0A1656"/><stop offset=".89" stop-color="#4478AF"/></radialGradient><radialGradient id="O" cx="0" cy="0" r="1" gradientTransform="matrix(-304.93178 -325.25362 324.57735 -304.29776 1364.48 128.006)" gradientUnits="userSpaceOnUse"><stop offset=".06" stop-color="#0A1656"/><stop offset=".89" stop-color="#4478AF"/></radialGradient><radialGradient id="P" cx="0" cy="0" r="1" gradientTransform="rotate(-133.152 762.956 -76.379) scale(34.9961 34.9233)" gradientUnits="userSpaceOnUse"><stop offset=".06" stop-color="#0A1656"/><stop offset=".89" stop-color="#4478AF"/></radialGradient><radialGradient id="Q" cx="0" cy="0" r="1" gradientTransform="matrix(-24.54606 -26.18282 26.1284 -24.49504 1014.63 269.389)" gradientUnits="userSpaceOnUse"><stop offset=".06" stop-color="#0A1656"/><stop offset=".89" stop-color="#4478AF"/></radialGradient><radialGradient id="R" cx="0" cy="0" r="1" gradientTransform="rotate(-133.152 358.846 210.115) scale(445.84 444.913)" gradientUnits="userSpaceOnUse"><stop offset=".06" stop-color="#0A1656"/><stop offset=".89" stop-color="#4478AF"/></radialGradient><radialGradient id="S" cx="0" cy="0" r="1" gradientTransform="rotate(-133.152 358.846 210.115) scale(445.839 444.912)" gradientUnits="userSpaceOnUse"><stop offset=".06" stop-color="#0A1656"/><stop offset=".89" stop-color="#4478AF"/></radialGradient><radialGradient id="T" cx="0" cy="0" r="1" gradientTransform="rotate(-133.152 358.846 210.115) scale(445.839 444.912)" gradientUnits="userSpaceOnUse"><stop offset=".06" stop-color="#0A1656"/><stop offset=".89" stop-color="#4478AF"/></radialGradient><radialGradient id="U" cx="0" cy="0" r="1" gradientTransform="rotate(-133.152 358.846 210.115) scale(445.839 444.912)" gradientUnits="userSpaceOnUse"><stop offset=".06" stop-color="#0A1656"/><stop offset=".89" stop-color="#4478AF"/></radialGradient><radialGradient id="V" cx="0" cy="0" r="1" gradientTransform="matrix(-304.92973 -325.25143 324.57589 -304.29639 450.986 615.615)" gradientUnits="userSpaceOnUse"><stop offset=".06" stop-color="#0A1656"/><stop offset=".89" stop-color="#4478AF"/></radialGradient><radialGradient id="W" cx="0" cy="0" r="1" gradientTransform="rotate(-133.152 358.846 210.116) scale(445.837 444.91)" gradientUnits="userSpaceOnUse"><stop offset=".06" stop-color="#0A1656"/><stop offset=".89" stop-color="#4478AF"/></radialGradient><radialGradient id="X" cx="0" cy="0" r="1" gradientTransform="rotate(-133.152 411.823 365.3) scale(34.9961 34.9234)" gradientUnits="userSpaceOnUse"><stop offset=".06" stop-color="#0A1656"/><stop offset=".89" stop-color="#4478AF"/></radialGradient><radialGradient id="Y" cx="0" cy="0" r="1" gradientTransform="matrix(-24.54606 -26.18282 26.1284 -24.49504 101.148 756.983)" gradientUnits="userSpaceOnUse"><stop offset=".06" stop-color="#0A1656"/><stop offset=".89" stop-color="#4478AF"/></radialGradient><radialGradient id="Z" cx="0" cy="0" r="1" gradientTransform="matrix(5.51037 0 0 5.87776 1033.42 695.849)" gradientUnits="userSpaceOnUse"><stop offset=".06" stop-color="#E47E99"/><stop offset=".53" stop-color="#E43D99"/><stop offset=".99" stop-color="#B30058"/></radialGradient><radialGradient id="aa" cx="0" cy="0" r="1" gradientTransform="matrix(5.33759 0 0 5.69343 927.398 884.49)" gradientUnits="userSpaceOnUse"><stop offset=".06" stop-color="#E47E99"/><stop offset=".53" stop-color="#E43D99"/><stop offset=".99" stop-color="#B30058"/></radialGradient><radialGradient id="ab" cx="0" cy="0" r="1" gradientTransform="matrix(5.33759 0 0 5.69346 1018.35 825.447)" gradientUnits="userSpaceOnUse"><stop offset=".06" stop-color="#E47E99"/><stop offset=".53" stop-color="#E43D99"/><stop offset=".99" stop-color="#B30058"/></radialGradient><radialGradient id="ac" cx="0" cy="0" r="1" gradientTransform="matrix(5.33759 0 0 5.69343 1390.62 736.277)" gradientUnits="userSpaceOnUse"><stop offset=".06" stop-color="#E47E99"/><stop offset=".53" stop-color="#E43D99"/><stop offset=".99" stop-color="#B30058"/></radialGradient><radialGradient id="ad" cx="0" cy="0" r="1" gradientTransform="matrix(5.33759 0 0 5.69346 1270.92 978.084)" gradientUnits="userSpaceOnUse"><stop offset=".06" stop-color="#E47E99"/><stop offset=".53" stop-color="#E43D99"/><stop offset=".99" stop-color="#B30058"/></radialGradient><radialGradient id="ae" cx="0" cy="0" r="1" gradientTransform="matrix(33.5808 0 0 35.8195 1335.19 895.713)" gradientUnits="userSpaceOnUse"><stop offset=".06" stop-color="#E47E99"/><stop offset=".53" stop-color="#E43D99"/><stop offset=".99" stop-color="#B30058"/></radialGradient><radialGradient id="af" cx="0" cy="0" r="1" gradientTransform="matrix(33.696 0 0 35.9424 968.928 950.948)" gradientUnits="userSpaceOnUse"><stop offset=".06" stop-color="#E47E99"/><stop offset=".53" stop-color="#E43D99"/><stop offset=".99" stop-color="#B30058"/></radialGradient><radialGradient id="ag" cx="0" cy="0" r="1" gradientTransform="matrix(5.33759 0 0 5.69344 334.061 303.186)" gradientUnits="userSpaceOnUse"><stop offset=".06" stop-color="#E47E99"/><stop offset=".53" stop-color="#E43D99"/><stop offset=".99" stop-color="#B30058"/></radialGradient><radialGradient id="ah" cx="0" cy="0" r="1" gradientTransform="matrix(5.3376 0 0 5.69344 211.104 156.119)" gradientUnits="userSpaceOnUse"><stop offset=".06" stop-color="#E47E99"/><stop offset=".53" stop-color="#E43D99"/><stop offset=".99" stop-color="#B30058"/></radialGradient><radialGradient id="ai" cx="0" cy="0" r="1" gradientTransform="matrix(5.3376 0 0 5.69344 302.035 97.075)" gradientUnits="userSpaceOnUse"><stop offset=".06" stop-color="#E47E99"/><stop offset=".53" stop-color="#E43D99"/><stop offset=".99" stop-color="#B30058"/></radialGradient><radialGradient id="aj" cx="0" cy="0" r="1" gradientTransform="matrix(5.33762 0 0 5.69344 674.304 7.926)" gradientUnits="userSpaceOnUse"><stop offset=".06" stop-color="#E47E99"/><stop offset=".53" stop-color="#E43D99"/><stop offset=".99" stop-color="#B30058"/></radialGradient><radialGradient id="ak" cx="0" cy="0" r="1" gradientTransform="matrix(5.33762 0 0 5.69344 554.631 249.713)" gradientUnits="userSpaceOnUse"><stop offset=".06" stop-color="#E47E99"/><stop offset=".53" stop-color="#E43D99"/><stop offset=".99" stop-color="#B30058"/></radialGradient><radialGradient id="al" cx="0" cy="0" r="1" gradientTransform="matrix(33.5808 0 0 35.8195 618.874 167.342)" gradientUnits="userSpaceOnUse"><stop offset=".06" stop-color="#E47E99"/><stop offset=".53" stop-color="#E43D99"/><stop offset=".99" stop-color="#B30058"/></radialGradient><radialGradient id="am" cx="0" cy="0" r="1" gradientTransform="matrix(33.696 0 0 35.9424 252.634 222.577)" gradientUnits="userSpaceOnUse"><stop offset=".06" stop-color="#E47E99"/><stop offset=".53" stop-color="#E43D99"/><stop offset=".99" stop-color="#B30058"/></radialGradient><radialGradient id="an" cx="0" cy="0" r="1" gradientTransform="matrix(3.99359 0 0 4.25984 768.077 118.764)" gradientUnits="userSpaceOnUse"><stop offset=".06" stop-color="#E47E99"/><stop offset=".53" stop-color="#E43D99"/><stop offset=".99" stop-color="#B30058"/></radialGradient><radialGradient id="ao" cx="0" cy="0" r="1" gradientTransform="matrix(3.87841 0 0 4.13697 780.365 362.373)" gradientUnits="userSpaceOnUse"><stop offset=".06" stop-color="#E47E99"/><stop offset=".53" stop-color="#E43D99"/><stop offset=".99" stop-color="#B30058"/></radialGradient><radialGradient id="ap" cx="0" cy="0" r="1" gradientTransform="matrix(3.87838 0 0 4.13696 691.143 255.652)" gradientUnits="userSpaceOnUse"><stop offset=".06" stop-color="#E47E99"/><stop offset=".53" stop-color="#E43D99"/><stop offset=".99" stop-color="#B30058"/></radialGradient><radialGradient id="aq" cx="0" cy="0" r="1" gradientTransform="matrix(3.87841 0 0 4.13696 757.133 212.808)" gradientUnits="userSpaceOnUse"><stop offset=".06" stop-color="#E47E99"/><stop offset=".53" stop-color="#E43D99"/><stop offset=".99" stop-color="#B30058"/></radialGradient><radialGradient id="ar" cx="0" cy="0" r="1" gradientTransform="matrix(3.87838 0 0 4.13695 1027.26 148.111)" gradientUnits="userSpaceOnUse"><stop offset=".06" stop-color="#E47E99"/><stop offset=".53" stop-color="#E43D99"/><stop offset=".99" stop-color="#B30058"/></radialGradient><radialGradient id="as" cx="0" cy="0" r="1" gradientTransform="matrix(3.87841 0 0 4.13695 940.416 323.564)" gradientUnits="userSpaceOnUse"><stop offset=".06" stop-color="#E47E99"/><stop offset=".53" stop-color="#E43D99"/><stop offset=".99" stop-color="#B30058"/></radialGradient><radialGradient id="at" cx="0" cy="0" r="1" gradientTransform="matrix(24.3648 0 0 25.9891 987.034 263.803)" gradientUnits="userSpaceOnUse"><stop offset=".06" stop-color="#E47E99"/><stop offset=".53" stop-color="#E43D99"/><stop offset=".99" stop-color="#B30058"/></radialGradient><radialGradient id="au" cx="0" cy="0" r="1" gradientTransform="matrix(24.4608 0 0 26.0915 721.287 303.862)" gradientUnits="userSpaceOnUse"><stop offset=".06" stop-color="#E47E99"/><stop offset=".53" stop-color="#E43D99"/><stop offset=".99" stop-color="#B30058"/></radialGradient><radialGradient id="av" cx="0" cy="0" r="1" gradientTransform="matrix(3.9936 0 0 4.25984 716.813 900.076)" gradientUnits="userSpaceOnUse"><stop offset=".06" stop-color="#E47E99"/><stop offset=".53" stop-color="#E43D99"/><stop offset=".99" stop-color="#B30058"/></radialGradient><radialGradient id="aw" cx="0" cy="0" r="1" gradientTransform="matrix(3.39841 0 0 3.62497 869.606 718.561)" gradientUnits="userSpaceOnUse"><stop offset=".06" stop-color="#E47E99"/><stop offset=".53" stop-color="#E43D99"/><stop offset=".99" stop-color="#B30058"/></radialGradient><radialGradient id="ax" cx="0" cy="0" r="1" gradientTransform="matrix(3.39841 0 0 3.62494 861.946 861.307)" gradientUnits="userSpaceOnUse"><stop offset=".06" stop-color="#E47E99"/><stop offset=".53" stop-color="#E43D99"/><stop offset=".99" stop-color="#B30058"/></radialGradient><radialGradient id="ay" cx="0" cy="0" r="1" gradientTransform="matrix(3.39838 0 0 3.62497 786.873 841.831)" gradientUnits="userSpaceOnUse"><stop offset=".06" stop-color="#E47E99"/><stop offset=".53" stop-color="#E43D99"/><stop offset=".99" stop-color="#B30058"/></radialGradient><radialGradient id="az" cx="0" cy="0" r="1" gradientTransform="matrix(3.39841 0 0 3.62497 552.999 683.848)" gradientUnits="userSpaceOnUse"><stop offset=".06" stop-color="#E47E99"/><stop offset=".53" stop-color="#E43D99"/><stop offset=".99" stop-color="#B30058"/></radialGradient><radialGradient id="aA" cx="0" cy="0" r="1" gradientTransform="matrix(3.39841 0 0 3.62494 730.714 625.295)" gradientUnits="userSpaceOnUse"><stop offset=".06" stop-color="#E47E99"/><stop offset=".53" stop-color="#E43D99"/><stop offset=".99" stop-color="#B30058"/></radialGradient><radialGradient id="aB" cx="0" cy="0" r="1" gradientTransform="matrix(26.4 0 0 28.16 661.651 642.13)" gradientUnits="userSpaceOnUse"><stop offset=".06" stop-color="#E47E99"/><stop offset=".53" stop-color="#E43D99"/><stop offset=".99" stop-color="#B30058"/></radialGradient><radialGradient id="aC" cx="0" cy="0" r="1" gradientTransform="matrix(26.1888 0 0 27.9347 871.449 793.129)" gradientUnits="userSpaceOnUse"><stop offset=".06" stop-color="#E47E99"/><stop offset=".53" stop-color="#E43D99"/><stop offset=".99" stop-color="#B30058"/></radialGradient><radialGradient id="aD" cx="0" cy="0" r="1" gradientTransform="matrix(5.5104 0 0 5.87777 265.248 782.807)" gradientUnits="userSpaceOnUse"><stop offset=".06" stop-color="#E47E99"/><stop offset=".53" stop-color="#E43D99"/><stop offset=".99" stop-color="#B30058"/></radialGradient><radialGradient id="aE" cx="0" cy="0" r="1" gradientTransform="matrix(4.6848 0 0 4.99711 475.834 532.644)" gradientUnits="userSpaceOnUse"><stop offset=".06" stop-color="#E47E99"/><stop offset=".53" stop-color="#E43D99"/><stop offset=".99" stop-color="#B30058"/></radialGradient><radialGradient id="aF" cx="0" cy="0" r="1" gradientTransform="matrix(4.6848 0 0 4.99711 465.274 729.375)" gradientUnits="userSpaceOnUse"><stop offset=".06" stop-color="#E47E99"/><stop offset=".53" stop-color="#E43D99"/><stop offset=".99" stop-color="#B30058"/></radialGradient><radialGradient id="aG" cx="0" cy="0" r="1" gradientTransform="matrix(4.68481 0 0 4.99711 361.824 702.546)" gradientUnits="userSpaceOnUse"><stop offset=".06" stop-color="#E47E99"/><stop offset=".53" stop-color="#E43D99"/><stop offset=".99" stop-color="#B30058"/></radialGradient><radialGradient id="aH" cx="0" cy="0" r="1" gradientTransform="matrix(4.6848 0 0 4.99711 39.494 484.803)" gradientUnits="userSpaceOnUse"><stop offset=".06" stop-color="#E47E99"/><stop offset=".53" stop-color="#E43D99"/><stop offset=".99" stop-color="#B30058"/></radialGradient><radialGradient id="aI" cx="0" cy="0" r="1" gradientTransform="matrix(4.6848 0 0 4.99711 284.409 404.091)" gradientUnits="userSpaceOnUse"><stop offset=".06" stop-color="#E47E99"/><stop offset=".53" stop-color="#E43D99"/><stop offset=".99" stop-color="#B30058"/></radialGradient><radialGradient id="aJ" cx="0" cy="0" r="1" gradientTransform="matrix(36.384 0 0 38.8096 189.216 427.315)" gradientUnits="userSpaceOnUse"><stop offset=".06" stop-color="#E47E99"/><stop offset=".53" stop-color="#E43D99"/><stop offset=".99" stop-color="#B30058"/></radialGradient><radialGradient id="aK" cx="0" cy="0" r="1" gradientTransform="matrix(36.096 0 0 38.5024 478.368 635.433)" gradientUnits="userSpaceOnUse"><stop offset=".06" stop-color="#E47E99"/><stop offset=".53" stop-color="#E43D99"/><stop offset=".99" stop-color="#B30058"/></radialGradient><radialGradient id="aL" cx="0" cy="0" r="1" gradientTransform="matrix(5.51041 0 0 5.87775 1260.02 535.224)" gradientUnits="userSpaceOnUse"><stop offset=".06" stop-color="#E47E99"/><stop offset=".53" stop-color="#E43D99"/><stop offset=".99" stop-color="#B30058"/></radialGradient><radialGradient id="aM" cx="0" cy="0" r="1" gradientTransform="matrix(4.6848 0 0 4.99711 1356.58 454.963)" gradientUnits="userSpaceOnUse"><stop offset=".06" stop-color="#E47E99"/><stop offset=".53" stop-color="#E43D99"/><stop offset=".99" stop-color="#B30058"/></radialGradient><radialGradient id="aN" cx="0" cy="0" r="1" gradientTransform="matrix(4.6848 0 0 4.99711 1034.25 237.22)" gradientUnits="userSpaceOnUse"><stop offset=".06" stop-color="#E47E99"/><stop offset=".53" stop-color="#E43D99"/><stop offset=".99" stop-color="#B30058"/></radialGradient><radialGradient id="aO" cx="0" cy="0" r="1" gradientTransform="matrix(4.6848 0 0 4.99712 1279.16 156.529)" gradientUnits="userSpaceOnUse"><stop offset=".06" stop-color="#E47E99"/><stop offset=".53" stop-color="#E43D99"/><stop offset=".99" stop-color="#B30058"/></radialGradient><radialGradient id="aP" cx="0" cy="0" r="1" gradientTransform="matrix(36.384 0 0 38.8096 1183.99 179.733)" gradientUnits="userSpaceOnUse"><stop offset=".06" stop-color="#E47E99"/><stop offset=".53" stop-color="#E43D99"/><stop offset=".99" stop-color="#B30058"/></radialGradient><radialGradient id="aQ" cx="0" cy="0" r="1" gradientTransform="matrix(36.096 0 0 38.5024 1473.12 387.85)" gradientUnits="userSpaceOnUse"><stop offset=".06" stop-color="#E47E99"/><stop offset=".53" stop-color="#E43D99"/><stop offset=".99" stop-color="#B30058"/></radialGradient><radialGradient id="aR" cx="0" cy="0" r="1" gradientTransform="matrix(258.662 0 0 275.907 1396.51 160.399)" gradientUnits="userSpaceOnUse"><stop offset=".06" stop-color="#001256"/><stop offset=".24" stop-color="#001153" stop-opacity=".94"/><stop offset=".44" stop-color="#00104C" stop-opacity=".78"/><stop offset=".66" stop-color="#000D40" stop-opacity=".51"/><stop offset=".89" stop-color="#000A30" stop-opacity=".13"/><stop offset=".96" stop-color="#00092B" stop-opacity="0"/></radialGradient><radialGradient id="aS" cx="0" cy="0" r="1" gradientTransform="matrix(258.662 0 0 275.907 106.665 179.873)" gradientUnits="userSpaceOnUse"><stop offset=".06" stop-color="#430056"/><stop offset=".24" stop-color="#410053" stop-opacity=".94"/><stop offset=".44" stop-color="#3B004C" stop-opacity=".78"/><stop offset=".66" stop-color="#320040" stop-opacity=".51"/><stop offset=".89" stop-color="#250030" stop-opacity=".13"/><stop offset=".96" stop-color="#21002B" stop-opacity="0"/></radialGradient><radialGradient id="aT" cx="0" cy="0" r="1" gradientTransform="matrix(258.662 0 0 275.907 101.635 933.586)" gradientUnits="userSpaceOnUse"><stop offset=".06" stop-color="#001256"/><stop offset=".24" stop-color="#001153" stop-opacity=".94"/><stop offset=".44" stop-color="#00104C" stop-opacity=".78"/><stop offset=".66" stop-color="#000D40" stop-opacity=".51"/><stop offset=".89" stop-color="#000A30" stop-opacity=".13"/><stop offset=".96" stop-color="#00092B" stop-opacity="0"/></radialGradient><radialGradient id="aU" cx="0" cy="0" r="1" gradientTransform="matrix(373.786 0 0 398.705 1133.2 870.83)" gradientUnits="userSpaceOnUse"><stop offset=".06" stop-color="#430056"/><stop offset=".24" stop-color="#410053" stop-opacity=".94"/><stop offset=".44" stop-color="#3B004C" stop-opacity=".78"/><stop offset=".66" stop-color="#320040" stop-opacity=".51"/><stop offset=".89" stop-color="#250030" stop-opacity=".13"/><stop offset=".96" stop-color="#21002B" stop-opacity="0"/></radialGradient><radialGradient id="aV" cx="0" cy="0" r="1" gradientTransform="matrix(373.786 0 0 398.705 710.409 470.271)" gradientUnits="userSpaceOnUse"><stop offset=".06" stop-color="#001256"/><stop offset=".24" stop-color="#001153" stop-opacity=".94"/><stop offset=".44" stop-color="#00104C" stop-opacity=".78"/><stop offset=".66" stop-color="#000D40" stop-opacity=".51"/><stop offset=".89" stop-color="#000A30" stop-opacity=".13"/><stop offset=".96" stop-color="#00092B" stop-opacity="0"/></radialGradient><radialGradient id="aW" cx="0" cy="0" r="1" gradientTransform="matrix(590.592 0 0 629.965 576.633 619.131)" gradientUnits="userSpaceOnUse"><stop offset=".06" stop-color="#001256"/><stop offset=".24" stop-color="#001153" stop-opacity=".94"/><stop offset=".44" stop-color="#00104C" stop-opacity=".78"/><stop offset=".66" stop-color="#000D40" stop-opacity=".51"/><stop offset=".89" stop-color="#000A30" stop-opacity=".13"/><stop offset=".96" stop-color="#00092B" stop-opacity="0"/></radialGradient><radialGradient id="aX" cx="0" cy="0" r="1" gradientTransform="matrix(636.211 0 0 678.625 1042.6 205.373)" gradientUnits="userSpaceOnUse"><stop offset=".06" stop-color="#001256"/><stop offset=".24" stop-color="#001153" stop-opacity=".94"/><stop offset=".44" stop-color="#00104C" stop-opacity=".78"/><stop offset=".66" stop-color="#000D40" stop-opacity=".51"/><stop offset=".89" stop-color="#000A30" stop-opacity=".13"/><stop offset=".96" stop-color="#00092B" stop-opacity="0"/></radialGradient><radialGradient id="aY" cx="0" cy="0" r="1" gradientTransform="matrix(382.31 0 0 407.798 1242.49 771.604)" gradientUnits="userSpaceOnUse"><stop offset=".06" stop-color="#430056"/><stop offset=".24" stop-color="#410053" stop-opacity=".94"/><stop offset=".44" stop-color="#3B004C" stop-opacity=".78"/><stop offset=".66" stop-color="#320040" stop-opacity=".51"/><stop offset=".89" stop-color="#250030" stop-opacity=".13"/><stop offset=".96" stop-color="#21002B" stop-opacity="0"/></radialGradient><radialGradient id="aZ" cx="0" cy="0" r="1" gradientTransform="matrix(388.954 0 0 414.884 237.773 201.912)" gradientUnits="userSpaceOnUse"><stop offset=".06" stop-color="#430056"/><stop offset=".24" stop-color="#410053" stop-opacity=".94"/><stop offset=".44" stop-color="#3B004C" stop-opacity=".78"/><stop offset=".66" stop-color="#320040" stop-opacity=".51"/><stop offset=".89" stop-color="#250030" stop-opacity=".13"/><stop offset=".96" stop-color="#21002B" stop-opacity="0"/></radialGradient><clipPath id="a"><path fill="#fff" d="M0 0h1440v1024H0z"/></clipPath></defs></svg>